<svg xmlns="http://www.w3.org/2000/svg" preserveAspectRatio="xMidYMid" width="30" height="30" viewBox="0 0 30 30"><defs><style>.cls-1 { fill: #fff; fill-rule: evenodd; }</style></defs><path d="M15 .012c5.321 0 9.991 2.795 12.651 6.986l-12.651 6.326-12.651-6.326c2.66-4.191 7.33-6.986 12.651-6.986zm-14.988 14.988c0-1.876.361-3.665.994-5.321l11.983 5.991-5.991 11.982c-4.191-2.661-6.986-7.331-6.986-12.652zm14.988 14.988c-1.876 0-3.665-.361-5.321-.994l6.438-12.877 12.877-6.438c.633 1.656.994 3.445.994 5.321 0 8.264-6.723 14.988-14.988 14.988z" class="cls-1"/></svg>