<svg xmlns="http://www.w3.org/2000/svg" viewBox="0 0 314 270" enable-background="new 0 0 314 270"><style type="text/css">.st0{fill:#B7EAFC;} .st1{fill:#E0DEFF;} .st2{fill:#FFFFFF;stroke:#000000;stroke-miterlimit:10;} .st3{fill:#FEE29F;} .st4{fill:#E9EDF2;} .st5{fill:none;stroke:#000000;stroke-width:2;stroke-miterlimit:10;} .st6{fill:none;stroke:#000000;stroke-width:2;stroke-miterlimit:10;stroke-dasharray:6,6;} .st7{fill:#FFFFFF;stroke:#000000;stroke-width:2;stroke-miterlimit:10;}</style><path class="st0" d="M81 245v-200l12-32 12 32v200m0 0v16c0 4.4-3.6 8-8 8h-8c-4.4 0-8-3.6-8-8v-16"/><path class="st1" d="M121 61h48v184h-48z"/><path class="st0" d="M185 213h56v56h-56z"/><path class="st2" d="M185 197h56l-28-56z"/><circle class="st3" cx="213" cy="97" r="28"/><path class="st4" d="M257 13h56v256h-56z"/><path class="st5" d="M237 8v-3h-3"/><path class="st6" d="M228 5h-33"/><path class="st5" d="M192 5h-3v3"/><path class="st6" d="M189 14v33"/><path class="st5" d="M189 50v3h3"/><path class="st6" d="M198 53h33"/><path class="st5" d="M234 53h3v-3"/><path class="st6" d="M237 44v-33"/><path class="st5" d="M93 189.5v39.5m-12 16v-200l12-32 12 32v200m0-200h-24m24 200v16c0 4.4-3.6 8-8 8h-8c-4.4 0-8-3.6-8-8v-16m88 0v16c0 4.4-3.6 8-8 8h-32c-4.4 0-8-3.6-8-8v-16M121 61h48v184h-48zm16-32l-16 16v16m32-32l16 16v16m-32-32h16m-16 0v-8l16-8v16m16 16h-48"/><path class="st7" d="M137 77h16v104h-16z"/><circle class="st7" cx="237" cy="53.1" r="4"/><circle class="st7" cx="237" cy="5" r="4"/><circle class="st7" cx="189" cy="5" r="4"/><circle class="st7" cx="189" cy="53" r="4"/><path class="st5" d="M213 17v24m12-19.3v-4.7h-24v4.7m7.3 19.3h9.4"/><circle class="st5" cx="213" cy="97" r="28"/><path class="st5" d="M185 213h56v56h-56zm0-16h56l-28-56zm72-184h56v256h-56z"/><circle class="st7" cx="285" cy="253" r="4"/><path class="st5" d="M297 253h16m-16-16h16m-16-16h16m-16-16h16m-16-16h16m-16-16h16m-16-16h16m-16-16h16m-16-16h16m-16-16h16m-16-16h16m-16-16h16m-16-16h16m-16-16h16m-16-16h16"/><path class="st5" d="M65 181c0-13.2-10.8-24-24-24h-16c-13.2 0-24 10.8-24 24v64c0 13.2 10.8 24 24 24h16c13.2 0 24-10.8 24-24v-64z"/><circle class="st5" cx="33" cy="189" r="8"/><path class="st5" d="M33 157v-20m0 0c0-8.8-7.2-16-16-16m-16-16c0 8.8 7.2 16 16 16m-16-16v-16m0 0c0-8.8 7.2-16 16-16m16-16c0 8.8-7.2 16-16 16m16-16v-44"/></svg>