<svg xmlns="http://www.w3.org/2000/svg" width="32" height="28" viewBox="0 0 32 28"><defs><style>.cls-1 { fill: #fff; } .cls-2 { fill-rule: evenodd; fill: url(#linear-gradient); }</style><linearGradient id="linear-gradient" x1="1008" y1="4154" x2="1036" y2="4126" gradientUnits="userSpaceOnUse"><stop offset="-.25" stop-color="#6c55e5"/><stop offset="1.25" stop-color="#816de9"/></linearGradient></defs><path class="cls-1" d="M4 2h24v19h-24z"/><path id="_59-document_-_analytic_graph_up" class="cls-2" d="M1037 4128h-1v18a2.006 2.006 0 0 1-2 2h-8.64l2.49 4.58a.876.876 0 0 1-.41 1.3 1.216 1.216 0 0 1-1.51-.35l-2.78-5.12a.807.807 0 0 1-.14-.41h-2.02a.807.807 0 0 1-.14.41l-2.78 5.12a1.216 1.216 0 0 1-1.51.35.876.876 0 0 1-.41-1.3l2.49-4.58h-8.64a2 2 0 0 1-2-2v-18h-1a1 1 0 0 1 0-2h30a1 1 0 0 1 0 2zm-3 0h-24v17a1 1 0 0 0 1 1h22a1 1 0 0 0 1-1v-17zm-16.87 6.5l.04-.03a.612.612 0 0 1 .15-.17.9.9 0 0 1 .19-.15.133.133 0 0 1 .05-.03.257.257 0 0 1 .05-.02.717.717 0 0 1 .25-.07 1.16 1.16 0 0 1 1.21.43l4.89 3.48 6.17-5.64a1 1 0 0 1 1.74 1l-7 6.39a1.01 1.01 0 0 1-1.37.37.7.7 0 0 1-.15-.19 1.007 1.007 0 0 1-.42-.34l-4.65-3.31-4.41 5.27a1.01 1.01 0 0 1-1.37.37 1.022 1.022 0 0 1-.37-1.38z" transform="translate(-1006 -4126)"/></svg>