<svg xmlns="http://www.w3.org/2000/svg" preserveAspectRatio="xMidYMid" width="13" height="13" viewBox="0 0 13 13"><defs><style>.cls-1 { fill: #fff; fill-rule: evenodd; }</style></defs><path d="M11.5 12.999h-10c-.829 0-1.5-.672-1.5-1.501v-9.999c0-.829.671-1.501 1.5-1.501h10c.828 0 1.5.672 1.5 1.501v9.999c0 .829-.672 1.501-1.5 1.501zm-1-3.001h-8c-.276 0-.5-.223-.5-.5 0-.276.224-.5.5-.5h8c.276 0 .5.224.5.5 0 .277-.224.5-.5.5zm0-3h-8c-.276 0-.5-.223-.5-.5 0-.275.224-.5.5-.5h8c.276 0 .5.225.5.5 0 .277-.224.5-.5.5zm0-3h-8c-.276 0-.5-.224-.5-.5s.224-.5.5-.5h8c.276 0 .5.224.5.5s-.224.5-.5.5z" class="cls-1"/></svg>