<svg xmlns="http://www.w3.org/2000/svg" width="55.969" height="59.97" viewBox="0 0 55.969 59.97"><defs><style>.cls-1 { fill-rule: evenodd; fill: url(#linear-gradient); }</style><linearGradient id="linear-gradient" x1="542.969" y1="1725.97" x2="487" y2="1670.001" gradientUnits="userSpaceOnUse"><stop offset="-.25" stop-color="#816de9"/><stop offset="1.25" stop-color="#96a0ff"/></linearGradient></defs><path id="branding-icon.svg" class="cls-1" d="M523.2 1693.78l19.785 32.19-3.4 2.01-8.975-14.6a31.388 31.388 0 0 1-26.743-.77l-9.444 15.37-3.4-2.01 9.43-15.34a32 32 0 0 1-13.468-18.64h4.14a27.975 27.975 0 0 0 11.409 15.25l8.274-13.46a9.958 9.958 0 0 1 4.2-17.58v-8.2h4v8.2a9.958 9.958 0 0 1 4.192 17.58zm-17.234 15.42a27.508 27.508 0 0 0 22.536.74l-8.825-14.35a8.909 8.909 0 0 1-5.343 0zm11.034-29.2a6 6 0 1 0 5.991 5.99 5.989 5.989 0 0 0-5.991-5.99z" transform="translate(-487 -1668)"/></svg>