<svg xmlns="http://www.w3.org/2000/svg" preserveAspectRatio="xMidYMid" width="21.125" height="24" viewBox="0 0 21.125 24"><defs><style>.cls-1 { fill: #f95548; fill-rule: evenodd; }</style></defs><path d="M21 4h-3v2.642c0 .283.276.358 0 .358h-14c-.276 0-1-.075-1-.358v-2.642h-2c-.276 0-1-.138-1-.42v-3.063c0-.282.224-.511.5-.511h20c.276 0 .5.229.5.511v3.063c0 .282.276.42 0 .42zm-17 2h13v-2h-13v2zm16-4.973h-19v2.042h19v-2.042zm-15 6.973h12c.276 0 0 .402 0 .684v14.804c0 .282-.224.51-.5.51s-.5-.228-.5-.51v-14.488h-11v14.488c0 .282-.224.51-.5.51s-.5-.228-.5-.51v-14.804c0-.282.724-.684 1-.684zm2.5 2.726c.276 0 .5.228.5.511v12.251c0 .282-.224.51-.5.51s-.5-.228-.5-.51v-12.251c0-.283.224-.511.5-.511zm3 0c.276 0 .5.228.5.511v12.251c0 .282-.224.51-.5.51s-.5-.228-.5-.51v-12.251c0-.283.224-.511.5-.511zm3 0c.276 0 .5.228.5.511v12.251c0 .282-.224.51-.5.51s-.5-.228-.5-.51v-12.251c0-.283.224-.511.5-.511z" class="cls-1"/></svg>