<svg xmlns="http://www.w3.org/2000/svg" preserveAspectRatio="xMidYMid" width="15.062" height="16" viewBox="0 0 15.062 16"><defs><style>.cls-1 { fill: #a2a8ae; fill-rule: evenodd; }</style></defs><path d="M14 15.998h-13c-.552 0-1-.447-1-1v-13c0-.552.448-1 1-1h3v-1h1v1h5v-1h1v1h3.5c.552 0 .5.448.5 1v13c0 .553-.448 1-1 1zm0-13.499c0-.277-.224-.501-.5-.501h-2.5v1.001h-1v-1.001h-5v1.001h-1v-1.001h-2.5c-.276 0-.5.224-.5.501v1.5h13v-1.5zm-4 8.499h3v3h-3v-3zm0-3.999h3v2.999h-3v-2.999zm-4 3.999h3v3h-3v-3zm0-3.999h3v2.999h-3v-2.999zm-4 3.999h3v3h-3v-3zm0-3.999h3v2.999h-3v-2.999z" class="cls-1"/></svg>