<svg xmlns="http://www.w3.org/2000/svg" preserveAspectRatio="xMidYMid" width="25" height="23" viewBox="0 0 25 23"><defs><style>.cls-1 { fill: #919191; fill-rule: evenodd; }</style></defs><path d="M22.656 19.994h-6.765l-3.391 3.005-3.39-3.005h-6.766c-1.295 0-2.344-1.033-2.344-2.308v-15.38c0-1.275 1.049-2.308 2.344-2.308h20.312c1.294 0 2.344 1.033 2.344 2.308v15.38c0 1.275-1.05 2.308-2.344 2.308zm1.344-16.994c0-1.105-.895-2-2-2h-19c-1.105 0-2 .895-2 2v14c0 1.105.895 1.999 2 1.999h4.99l.01-.008v.008h1.498l-.002.002 3.004 2.662 3.003-2.662-.001-.002h1.498v-.008l.01.008h4.99c1.105 0 2-.894 2-1.999v-14zm-5.5 5h-12c-.276 0-.5-.224-.5-.501 0-.275.224-.499.5-.499h12c.276 0 .5.224.5.499 0 .277-.224.501-.5.501zm-11 3h10c.276 0 .5.224.5.5s-.224.5-.5.5h-10c-.276 0-.5-.224-.5-.5s.224-.5.5-.5z" class="cls-1"/></svg>