<svg xmlns="http://www.w3.org/2000/svg" preserveAspectRatio="xMidYMid" width="23" height="24" viewBox="0 0 23 24"><defs><style>.cls-1 { fill: #f95548; fill-rule: evenodd; }</style></defs><path d="M19.799 6.474v17.026c0 .276-.223.5-.5.5h-15c-.276 0-.5-.224-.5-.5v-16.906l-.299.031c-1.962 0-3.5-1.483-3.5-3.375 0-1.853 1.505-3.25 3.5-3.25h16c1.995 0 3.5 1.397 3.5 3.25 0 1.757-1.359 3.089-3.201 3.224zm-15 16.526h14v-16.571c-.89-.182-1.649-.71-2.154-1.429h-9.846c-.117 0-.221-.047-.306-.115-.392.661-.982 1.187-1.694 1.479v16.636zm14.701-22h-16c-1.449 0-2.5.946-2.5 2.25 0 1.354 1.075 2.374 2.5 2.374 1.355 0 2.5-1.173 2.5-2.561 0-.277.224-.5.5-.5s.5.223.5.5c0 .325-.051.638-.132.937h9.29c-.096-.318-.158-.651-.158-1 0-.276.224-.5.5-.5s.5.224.5.5c0 1.378 1.122 2.5 2.5 2.5 1.449 0 2.5-.946 2.5-2.25s-1.051-2.25-2.5-2.25zm0 3.5c-.827 0-1.5-.673-1.5-1.5s.673-1.5 1.5-1.5 1.5.673 1.5 1.5-.673 1.5-1.5 1.5zm0-2c-.276 0-.5.224-.5.5s.224.5.5.5.5-.224.5-.5-.224-.5-.5-.5zm-16 2c-.827 0-1.5-.673-1.5-1.5s.673-1.5 1.5-1.5 1.5.673 1.5 1.5-.673 1.5-1.5 1.5zm0-2c-.276 0-.5.224-.5.5s.224.5.5.5.5-.224.5-.5-.224-.5-.5-.5zm3.799 4c.277 0 .5.223.5.5v14c0 .276-.223.5-.5.5-.276 0-.5-.224-.5-.5v-14c0-.277.224-.5.5-.5zm3 0c.277 0 .5.223.5.5v14c0 .276-.223.5-.5.5-.276 0-.5-.224-.5-.5v-14c0-.277.224-.5.5-.5zm3 0c.277 0 .5.223.5.5v14c0 .276-.223.5-.5.5-.276 0-.5-.224-.5-.5v-14c0-.277.224-.5.5-.5zm3 0c.277 0 .5.223.5.5v14c0 .276-.223.5-.5.5-.276 0-.5-.224-.5-.5v-14c0-.277.224-.5.5-.5z" class="cls-1"/></svg>