<svg xmlns="http://www.w3.org/2000/svg" preserveAspectRatio="xMidYMid" width="17" height="24" viewBox="0 0 17 24"><defs><style>.cls-1 { fill: #f95548; fill-rule: evenodd; }</style></defs><path d="M16.5 24h-6c-.276 0-.5-.223-.5-.5v-7.5h-3v7.5c0 .277-.224.5-.5.5h-6c-.276 0-.5-.223-.5-.5v-12c0-.276.224-.5.5-.5h.5v-3.5c0-.276.224-.5.5-.5h.5v-1h1v-6h1v6h1v1h.5c.276 0 .5.224.5.5v3.5h.5c.276 0 .5.224.5.5v3.5h3v-3.5c0-.276.224-.5.5-.5h.5v-3.5c0-.276.224-.5.5-.5h.5v-1h1v-6h1v6h1v1h.5c.276 0 .5.224.5.5v3.5h.5c.276 0 .5.224.5.5v12c0 .277-.224.5-.5.5zm-11.5-16h-3v3h3v-3zm1 4h-5v11h3v-8c0-.277.224-.5.5-.5s.5.223.5.5v8h1v-11zm9-4h-3v3h3v-3zm1 4h-5v11h1v-8c0-.277.224-.5.5-.5s.5.223.5.5v8h3v-11z" class="cls-1"/></svg>