<svg xmlns="http://www.w3.org/2000/svg" preserveAspectRatio="xMidYMid" width="38" height="50" viewBox="0 0 38 50"><defs><style>.cls-1 { fill: #fff; fill-rule: evenodd; }</style></defs><path d="M35.625 50h-33.25c-1.009 0-2.375-1.351-2.375-2.381v-45.238c0-1.029 1.366-2.381 2.375-2.381h21.625v14h14v33.619c0 1.03-1.366 2.381-2.375 2.381zm-8.738-25.357c-.781-.781-2.047-.781-2.828 0l-8.121 8.121-2.708-2.707c-.781-.781-2.047-.781-2.828 0-.781.781-.781 2.048 0 2.829l4.243 4.242c.781.781 2.047.781 2.828 0 .203-.203.35-.439.448-.69l8.966-8.966c.781-.781.781-2.048 0-2.829zm1.113-24.643l10 10h-10v-10z" class="cls-1"/></svg>