<svg xmlns="http://www.w3.org/2000/svg" preserveAspectRatio="xMidYMid" width="24" height="24" viewBox="0 0 24 24"><defs><style>.cls-1 { fill: #f95548; fill-rule: evenodd; }</style></defs><path d="M12 24c-6.627 0-12-5.373-12-12s5.373-12 12-12 12 5.373 12 12-5.373 12-12 12zm0-23c-6.065 0-11 4.935-11 11 0 6.066 4.935 11 11 11s11-4.934 11-11c0-6.065-4.935-11-11-11zm-4.787 18.452l-.213.048c-.103 0-.205-.032-.292-.094-.148-.106-.226-.284-.204-.465.92-7.808 3.518-11.441 10.296-14.399.161-.07.344-.051.485.047.143.099.224.264.214.438-.39 7.165-3.178 11.075-10.286 14.425zm.401-1.307c5.916-2.97 8.323-6.334 8.829-12.345-5.637 2.631-7.902 5.795-8.829 12.345zm2.886-6.145c0-.827.673-1.5 1.5-1.5s1.5.673 1.5 1.5-.673 1.5-1.5 1.5-1.5-.673-1.5-1.5zm2 0c0-.275-.225-.5-.5-.5s-.5.225-.5.5.225.5.5.5.5-.225.5-.5z" class="cls-1"/></svg>