<svg xmlns="http://www.w3.org/2000/svg" preserveAspectRatio="xMidYMid" width="23.281" height="17.9" viewBox="0 0 23.281 17.9"><defs><style>.cls-1 { fill: #f95548; fill-rule: evenodd; }</style></defs><path d="M23.138 17.514c-.051.233-.251.398-.482.398h-6.385c-2.336 0-3.586-1.494-5.033-3.223-.921-1.099-1.959-2.307-3.429-3.352-1.778.988-2.953 2.45-2.953 6.063 0 .283-.221.512-.494.512h-2.071c-.273 0-.494-.229-.494-.512 0-4.619-.568-8.881-1.292-9.705l-.022-.063-.055-.053c-1.044-2.162-.068-6.218 1.112-7.44.123-.127.3-.178.469-.134 4.26 1.102 7.12 2.148 9.13 4.231.849.878 1.503 2.071 2.194 3.335.983 1.791 1.998 3.643 3.664 4.794.816.563 1.848.756 2.844.941 1.259.235 2.447.456 3.066 1.426.423.662.499 1.572.231 2.782zm-20.355-.626h1.092c.113-3.589 1.419-5.178 2.972-6.167l-.257-.165c-1.259-.682-3.391-1.637-4.72-2.219.661 2.155.887 5.972.913 8.551zm19.3-1.591c-.386-.605-1.327-.779-2.416-.983-1.046-.194-2.231-.415-3.218-1.097-1.863-1.286-2.985-3.334-3.975-5.141-.659-1.201-1.28-2.336-2.034-3.116-1.804-1.868-4.446-2.854-8.372-3.884-.753 1.086-1.525 4.142-.83 5.877.811.347 4.068 1.752 5.81 2.696 2.341 1.269 3.72 2.916 4.936 4.369 1.395 1.666 2.403 2.87 4.287 2.87h5.98c.113-.715.057-1.238-.168-1.591z" class="cls-1"/></svg>