<svg xmlns="http://www.w3.org/2000/svg" preserveAspectRatio="xMidYMid" width="23" height="23" viewBox="0 0 23 23"><defs><style>.cls-1 { fill: #fff; fill-rule: evenodd; }</style></defs><path d="M22.5 18c.276 0 .5.224.5.5v4c0 .276-.224.5-.5.5h-4c-.276 0-.5-.224-.5-.5v-1.5h-13v1.5c0 .276-.224.5-.5.5h-4c-.276 0-.5-.224-.5-.5v-4c0-.276.224-.5.5-.5h1.5v-13h-1.5c-.276 0-.5-.224-.5-.5v-4c0-.276.224-.5.5-.5h4c.276 0 .5.224.5.5v1.5h13v-1.5c0-.276.224-.5.5-.5h4c.276 0 .5.224.5.5v4c0 .276-.224.5-.5.5h-1.5v13h1.5zm-21.5 1v3h3v-3h-3zm3-16v-2h-3v3h3v-1zm14 1.5v-1.5h-13v1.5c0 .276-.224.5-.5.5h-1.5v13h1.5c.276 0 .5.224.5.5v1.5h13v-1.5c0-.276.224-.5.5-.5h1.5v-13h-1.5c-.276 0-.5-.224-.5-.5zm4-.5v-3h-3v3h3zm-2 15h-1v3h3v-3h-2zm-3.326-6.117l-4.366 2.073-.215.049c-.187 0-.366-.106-.452-.286-.118-.249-.012-.548.237-.666l3.741-1.776-3.721-1.566c-.253-.108-.374-.401-.266-.655.107-.254.399-.373.655-.267l4.36 1.836c.251.106.416.35.421.621.006.271-.149.521-.394.637zm-5.307.061c-.081.191-.265.306-.461.306l-.194-.039-4.359-1.835c-.251-.107-.415-.351-.421-.622-.006-.271.148-.521.392-.637l4.367-2.074c.248-.117.547-.012.667.238.119.249.012.548-.237.666l-3.741 1.776 3.721 1.566c.253.107.374.4.266.655z" class="cls-1"/></svg>