<svg xmlns="http://www.w3.org/2000/svg" preserveAspectRatio="xMidYMid" width="14" height="24" viewBox="0 0 14 24"><defs><style>.cls-1 { fill: #fff; fill-rule: evenodd; }</style></defs><path d="M12 24h-10c-1.102 0-2-.897-2-2v-20c0-1.103.898-2 2-2h10c1.102 0 2 .897 2 2v20c0 1.103-.898 2-2 2zm1-22c0-.551-.448-1-1-1h-10c-.552 0-1 .449-1 1v1h12v-1zm0 2h-12v15h12v-15zm0 16h-12v2c0 .551.448 1 1 1h10c.552 0 1-.449 1-1v-2zm-5 2h-2c-.276 0-.5-.224-.5-.5s.224-.5.5-.5h2c.276 0 .5.224.5.5s-.224.5-.5.5z" class="cls-1"/></svg>