<svg xmlns="http://www.w3.org/2000/svg" preserveAspectRatio="xMidYMid" width="23.031" height="17.938" viewBox="0 0 23.031 17.938"><defs><style>.cls-1 { fill: #fff; fill-rule: evenodd; }</style></defs><path d="M22.953.621l.029.143v16.4c0 .424-.349.768-.78.768h-21.421c-.432 0-.781-.344-.781-.768v-16.4l.035-.172c-.054-.165-.05-.344.081-.476.132-.131.311-.136.477-.081l.188-.037h21.421l.2.039c.166-.057.349-.054.482.079.139.14.139.333.069.505zm-21.957 1.152v14.446c0 .427.351.772.785.772h19.42c.434 0 .785-.345.785-.772v-14.446l-.044-.214-10.07 8.251-.018.044c-.098.097-.226.136-.354.131-.128.005-.256-.034-.354-.131l-.018-.044-10.086-8.263-.046.226zm10.504 7.119l9.632-7.891h-19.263l9.631 7.891z" class="cls-1"/></svg>