<svg xmlns="http://www.w3.org/2000/svg" preserveAspectRatio="xMidYMid" width="25" height="22" viewBox="0 0 25 22"><defs><style>.cls-1 { fill: #919191; fill-rule: evenodd; }</style></defs><path d="M23.437 18.998h-3.437v2.201c0 .441-.336.798-.75.798h-13.5c-.414 0-.75-.357-.75-.798v-2.201h-3.438c-.863 0-1.562-.716-1.562-1.6v-4.8c0-.883.699-1.6 1.562-1.6h3.438v-9.401c0-.882.671-1.599 1.5-1.599h12c.828 0 1.5.717 1.5 1.599v9.401h3.437c.863 0 1.563.717 1.563 1.6v4.8c0 .884-.7 1.6-1.563 1.6zm-17.437 1.166c0 .461.364.834.812.834h11.375c.449 0 .813-.373.813-.834v-3.333c0-.46-.364-.833-.813-.833h-11.375c-.448 0-.812.373-.812.833v3.333zm13-18.354c0-.448-.364-.812-.813-.812h-11.375c-.448 0-.812.364-.812.812v9.188h13v-9.188zm5 11.021c0-.459-.352-.833-.786-.833h-21.428c-.434 0-.786.374-.786.833v4.334c0 .46.352.833.786.833h3.214v-2.2c0-.442.336-.8.75-.8h13.5c.414 0 .75.358.75.8v2.2h3.214c.434 0 .786-.373.786-.833v-4.334zm-21 2.169c-.552 0-1-.447-1-1 0-.552.448-1 1-1s1 .448 1 1c0 .553-.448 1-1 1z" class="cls-1"/></svg>