<svg xmlns="http://www.w3.org/2000/svg" preserveAspectRatio="xMidYMid" width="24" height="24" viewBox="0 0 24 24"><defs><style>.cls-1 { fill: #f95548; fill-rule: evenodd; }</style></defs><path d="M12 24c-6.627 0-12-5.373-12-12s5.373-12 12-12 12 5.373 12 12-5.373 12-12 12zm0-23c-6.065 0-11 4.935-11 11s4.935 11 11 11 11-4.935 11-11-4.935-11-11-11zm0 20c-4.971 0-9-4.029-9-9s4.029-9 9-9 9 4.029 9 9-4.029 9-9 9zm0-17c-4.411 0-8 3.589-8 8s3.589 8 8 8 8-3.589 8-8-3.589-8-8-8zm-.081 7.381l.688.342c1.206.594 2.078 1.024 2.078 2.42 0 1.229-.863 2.089-2.185 2.252v.605c0 .276-.224.5-.5.5s-.5-.224-.5-.5v-.611c-1.277-.188-2.102-1.042-2.102-2.246 0-.277.224-.5.5-.5.277 0 .5.223.5.5 0 1.193 1.258 1.286 1.643 1.286.386 0 1.644-.093 1.644-1.286 0-.746-.291-.917-1.52-1.523l-.689-.342c-1.206-.595-2.078-1.026-2.078-2.42 0-1.211.825-2.072 2.102-2.26v-.598c0-.276.224-.5.5-.5s.5.224.5.5v.592c1.304.166 2.155 1.031 2.155 2.266 0 .277-.224.5-.5.5-.277 0-.5-.223-.5-.5 0-1.207-1.236-1.3-1.614-1.3-.794 0-1.643.341-1.643 1.3 0 .745.291.916 1.521 1.523z" class="cls-1"/></svg>