<svg xmlns="http://www.w3.org/2000/svg" width="35" height="42" viewBox="0 0 35 42"><defs><style>.cls-1 { fill-rule: evenodd; fill: url(#linear-gradient); }</style><linearGradient id="linear-gradient" x1="1224" y1="1291.144" x2="1259" y2="1332.856" gradientUnits="userSpaceOnUse"><stop offset="-.25" stop-color="#fc8741"/><stop offset="1.25" stop-color="#fc5441"/></linearGradient></defs><path id="gameplans.svg" class="cls-1" d="M1259 1313v2h-.02v17a1 1 0 0 1-1 1h-25.99a8.009 8.009 0 0 1-7.99-8v-29.5c0-3.03 2.47-4.5 5.5-4.5h27.48a1 1 0 0 1 0 2h-27.46c-1.94 0-3.52.57-3.52 2.51a3.5 3.5 0 0 0 3.5 3.49h28.48a1 1 0 0 1 1 1v7h.02v2h-.02v4h.02zm-30-12.04a5.5 5.5 0 0 1-3-1.22v25.26a6.009 6.009 0 0 0 3 5.19v-29.23zm7 15.04a7.989 7.989 0 0 0 4.97 7.4v-7.1a.706.706 0 0 0-.71-.71h-4.25l-.01.41zm8-8a8.011 8.011 0 0 0-7.61 5.51h3.87a2.789 2.789 0 0 1 2.78 2.79v7.64c.31.03.63.06.96.06s.64-.03.96-.06v-7.64a2.789 2.789 0 0 1 2.78-2.79h3.87a8.011 8.011 0 0 0-7.61-5.51zm7.99 7.59h-4.25a.706.706 0 0 0-.71.71v7.1a7.989 7.989 0 0 0 4.97-7.4l-.01-.41zm5.51-18.59h-26a1 1 0 0 1 0-2h26a1 1 0 0 1 0 2z" transform="translate(-1224 -1291)"/></svg>