<svg xmlns="http://www.w3.org/2000/svg" width="52" height="63" viewBox="0 0 52 63"><defs><style>.cls-1 { fill-rule: evenodd; fill: url(#linear-gradient); }</style><linearGradient id="linear-gradient" x1="299" y1="1665.514" x2="351" y2="1727.486" gradientUnits="userSpaceOnUse"><stop offset="-.25" stop-color="#fc8741"/><stop offset="1.25" stop-color="#fc5441"/></linearGradient></defs><path id="gameplans-icon.svg" class="cls-1" d="M351 1698v3h-.036v25.5a1.492 1.492 0 0 1-1.485 1.5h-38.6a11.95 11.95 0 0 1-11.879-12v-44.25c0-4.55 3.663-6.75 8.166-6.75h40.834a1.5 1.5 0 0 1 0 3h-40.8c-2.876 0-5.218.86-5.226 3.76a5.233 5.233 0 0 0 5.2 5.24h42.313a1.492 1.492 0 0 1 1.485 1.5v10.5h.028v3h-.036v6h.036zm-44.577-18.07a8.028 8.028 0 0 1-4.454-1.82v37.89a9.015 9.015 0 0 0 4.454 7.78v-43.85zm10.4 22.57a12 12 0 0 0 7.385 11.1v-10.65a1.064 1.064 0 0 0-1.056-1.07h-6.313c-.012.2-.017.41-.017.62zm11.89-12a11.9 11.9 0 0 0-11.3 8.27h5.742a4.16 4.16 0 0 1 4.136 4.18v11.45a11.342 11.342 0 0 0 2.852 0v-11.45a4.159 4.159 0 0 1 4.135-4.18h5.741a11.9 11.9 0 0 0-11.307-8.27zm11.875 11.38h-6.313a1.064 1.064 0 0 0-1.056 1.07v10.65a12 12 0 0 0 7.384-11.1l-.016-.62zm8.184-27.88h-38.629a1.5 1.5 0 0 1 0-3h38.628a1.5 1.5 0 0 1 0 3z" transform="translate(-299 -1665)"/></svg>