<svg xmlns="http://www.w3.org/2000/svg" width="67" height="80" viewBox="0 0 67 80"><defs><style>.cls-1 { fill-rule: evenodd; fill: url(#linear-gradient); }</style><linearGradient id="linear-gradient" x1="767" y1="1784.076" x2="834" y2="1863.924" gradientUnits="userSpaceOnUse"><stop offset="-.25" stop-color="#fc8741"/><stop offset="1.25" stop-color="#fc5441"/></linearGradient></defs><path id="gameplans-lg-icon.svg" class="cls-1" d="M834 1825.9v3.81h-.047v32.38a1.908 1.908 0 0 1-1.913 1.91h-49.74a15.291 15.291 0 0 1-15.3-15.24v-56.19c0-5.77 4.72-8.57 10.521-8.57h52.607a1.905 1.905 0 1 1 0 3.81h-52.569c-3.706 0-6.723 1.09-6.733 4.78a6.689 6.689 0 0 0 6.695 6.65h54.519a1.906 1.906 0 0 1 1.913 1.9v13.34h.047v3.81h-.047v7.61h.047zm-57.435-22.94a10.549 10.549 0 0 1-5.739-2.31v48.11a11.411 11.411 0 0 0 5.739 9.88v-55.68zm13.4 28.65a15.233 15.233 0 0 0 9.515 14.1v-13.53a1.36 1.36 0 0 0-1.361-1.35h-8.135q-.02.39-.02.78zm15.319-15.23a15.319 15.319 0 0 0-14.563 10.5h7.4a5.322 5.322 0 0 1 5.329 5.3v14.56a15.394 15.394 0 0 0 3.674 0v-14.56a5.322 5.322 0 0 1 5.328-5.3h7.4a15.321 15.321 0 0 0-14.569-10.5zm15.3 14.45h-8.135a1.36 1.36 0 0 0-1.361 1.35v13.53a15.231 15.231 0 0 0 9.515-14.1q-.003-.39-.019-.78zm10.545-35.4h-49.772a1.905 1.905 0 1 1 0-3.81h49.772a1.905 1.905 0 1 1 0 3.81z" transform="translate(-767 -1784)"/></svg>