<svg xmlns="http://www.w3.org/2000/svg" width="38" height="24" viewBox="0 0 38 24"><defs><style>.cls-1 { fill: #2fa6de; fill-rule: evenodd; }</style></defs><path id="googleplusblue.svg" class="cls-1" d="M748.091 4161.29v4.11h6.857c-.276 1.77-2.073 5.18-6.857 5.18a7.58 7.58 0 0 1 0-15.16 6.862 6.862 0 0 1 4.819 1.85l3.282-3.13a11.615 11.615 0 0 0-8.1-3.14 12 12 0 1 0 0 24c6.978 0 11.607-4.87 11.607-11.73a10.9 10.9 0 0 0-.19-1.98h-11.418zm22.454-3.43h-3.454v3.43h-3.455v3.42h3.455v3.43h3.454v-3.43h3.455v-3.42h-3.455v-3.43z" transform="translate(-736 -4151)"/></svg>