<svg xmlns="http://www.w3.org/2000/svg" preserveAspectRatio="xMidYMid" width="24" height="24" viewBox="0 0 24 24"><defs><style>.cls-1 { fill: #f95548; fill-rule: evenodd; }</style></defs><path d="M19.155 21.61l-.027.072-.157.067c-1.968 1.411-4.371 2.251-6.971 2.251-6.617 0-12-5.383-12-12s5.383-12 12-12 12 5.383 12 12c0 3.934-1.911 7.421-4.845 9.61zm-1.333-.294c-.443-.204-.993-.316-1.667-.316h-1.118c-.159 0-.307-.075-.402-.202l-1.256-1.697c-.44.218-.901.366-1.383.366-.473 0-.926-.146-1.359-.357l-1.217 1.683c-.094.13-.245.207-.405.207h-1.118c-.689 0-1.256.112-1.71.321 1.689 1.057 3.678 1.679 5.813 1.679 2.139 0 4.131-.623 5.822-1.684zm-2.196-12.619c.294-.778.063-1.654-.577-2.18-.378-.312-.842-.466-1.363-.466-.653 0-1.396.242-2.172.723-.08.049-.171.075-.264.075-2.853 0-2.853 1.03-2.853 2.025l-.039.191c-.008.022-.899 2.25.157 4.654l.042.201c0 2.21 1.768 4.547 3.439 4.547s3.438-2.337 3.438-4.547c0-.15.066-.29.181-.385.796-.66.343-3.332-.002-4.522-.029-.104-.025-.215.013-.316zm-3.626-7.697c-6.065 0-11 4.935-11 11 0 3.537 1.685 6.681 4.287 8.694.662-.452 1.529-.694 2.61-.694h.862l1.035-1.432c-1.289-1.065-2.199-2.902-2.236-4.543-1.053-2.496-.343-4.749-.161-5.245.019-1.512.519-2.89 3.712-2.929 1.716-1.019 3.419-1.059 4.576-.106.926.763 1.289 2.008.932 3.144.219.814.966 3.955-.188 5.246-.074 1.604-.96 3.375-2.21 4.419l1.07 1.446h.866c1.067 0 1.92.239 2.571.685 2.594-2.014 4.274-5.154 4.274-8.685 0-6.065-4.935-11-11-11z" class="cls-1"/></svg>