<svg xmlns="http://www.w3.org/2000/svg" preserveAspectRatio="xMidYMid" width="50" height="50" viewBox="0 0 50 50"><defs><style>.cls-1 { fill: #fff; fill-rule: evenodd; }</style></defs><path d="M24.999 49.997c5.51 0 10.558-1.839 14.691-4.859-.728-1.234-2.042-3.196-4.049-5.202-1.485-1.486-3.29-2.973-4.892-4.213-1.729 1.095-3.664 1.775-5.75 1.775-2.085 0-4.02-.68-5.749-1.775-1.603 1.24-3.407 2.727-4.892 4.213-2.007 2.006-3.321 3.968-4.049 5.202 4.133 3.02 9.18 4.859 14.69 4.859zm8.929-27.677c0-6.412-3.997-11.608-8.929-11.608-4.931 0-8.928 5.196-8.928 11.608 0 6.41 3.997 11.607 8.928 11.607 4.932 0 8.929-5.197 8.929-11.607zm-8.929-22.324c-13.806 0-24.999 11.193-24.999 24.999 0 7.061 2.951 13.409 7.658 17.956.654-1.173 1.956-3.221 4.081-5.345 1.455-1.455 3.22-2.922 4.81-4.165-2.475-2.774-4.05-6.71-4.05-11.121 0-8.385 5.597-15.179 12.5-15.179 6.904 0 12.501 6.794 12.501 15.179 0 4.411-1.575 8.347-4.05 11.121 1.59 1.243 3.355 2.71 4.81 4.165 2.125 2.124 3.427 4.172 4.082 5.345 4.706-4.547 7.657-10.896 7.657-17.956 0-13.806-11.192-24.999-25-24.999z" class="cls-1"/></svg>