<svg xmlns="http://www.w3.org/2000/svg" width="14" height="13" viewBox="0 0 14 13"><defs><style>.cls-1 { fill: #81878c; fill-rule: evenodd; }</style></defs><path id="icon-comment.svg" class="cls-1" d="M516 3112.5a.5.5 0 0 0-.5-.5h-13a.5.5 0 0 0-.5.5v10a.5.5 0 0 0 .5.5h4.5l2 2 2-2h4.5a.5.5 0 0 0 .5-.5v-10zm-3.5 3.5h-7a.5.5 0 0 1-.5-.5.5.5 0 0 1 .5-.5h7a.5.5 0 0 1 .5.5.5.5 0 0 1-.5.5zm-6 2h5a.5.5 0 0 1 .5.5.5.5 0 0 1-.5.5h-5a.5.5 0 0 1-.5-.5.5.5 0 0 1 .5-.5z" transform="translate(-502 -3112)"/></svg>