<svg xmlns="http://www.w3.org/2000/svg" width="13.75" height="21" viewBox="0 0 13.75 21"><defs><style>.cls-1 { fill: #39b54a; fill-rule: evenodd; }</style></defs><path id="icon-top-arrow.svg" class="cls-1" d="M851.419 1912.31l-5.816-6.11a.88.88 0 0 0-.645-.28.834.834 0 0 0-.652.26l-6.129 6.11a.909.909 0 0 0 .64 1.55.893.893 0 0 0 .639-.27l4.544-4.57v17a.944.944 0 0 0 .946.91 1.047 1.047 0 0 0 1.054-.91v-17l4.105 4.56a.914.914 0 0 0 1.282.03.9.9 0 0 0 .032-1.28z" transform="translate(-837.906 -1905.91)"/></svg>