<svg xmlns="http://www.w3.org/2000/svg" width="13.75" height="21" viewBox="0 0 13.75 21"><defs><style>.cls-1 { fill: #39b54a; fill-rule: evenodd; }</style></defs><path id="icon-top-bottom.svg" class="cls-1" d="M929.581 1920.51l5.816 6.1a.93.93 0 0 0 .645.29.878.878 0 0 0 .652-.27l6.129-6.11a.909.909 0 0 0-.64-1.55.893.893 0 0 0-.639.27l-4.544 4.57v-17a.944.944 0 0 0-.946-.91 1.047 1.047 0 0 0-1.054.91v17l-4.105-4.55a.905.905 0 0 0-1.282-.04.916.916 0 0 0-.032 1.29z" transform="translate(-929.344 -1905.91)"/></svg>