<svg xmlns="http://www.w3.org/2000/svg" width="172" height="263" viewBox="0 0 172 263"><defs><style>.cls-1, .cls-3, .cls-4, .cls-6, .cls-7 { fill-rule: evenodd; } .cls-1 { fill: url(#linear-gradient); } .cls-2 { fill: #aadcff; } .cls-3, .cls-9 { fill: #ffef24; } .cls-10, .cls-4 { fill: #ff92af; } .cls-5 { fill: #00d5a5; } .cls-12, .cls-6 { fill: #ffa76f; } .cls-7 { fill: #d8b8fe; } .cls-8 { fill: #23afff; } .cls-11 { fill: #dfc4fe; }</style><linearGradient id="linear-gradient" x1="800.094" y1="3167.735" x2="762.312" y2="3167.735" gradientUnits="userSpaceOnUse"><stop offset="-.25" stop-color="#31b744"/><stop offset="-.246" stop-color="#31b744"/><stop offset="1.25" stop-color="#13c2ce"/></linearGradient></defs><path class="cls-1" d="M781.207 3275.46a19.216 19.216 0 0 1-1.207-38.37v-177.09h2v177.09l1.1.04a19.231 19.231 0 0 1-1.893 38.33zm0-36.16a16.952 16.952 0 1 0 16.678 16.95 16.831 16.831 0 0 0-16.678-16.95zm-.207 27.7a11 11 0 1 1 11-11 11 11 0 0 1-11 11z" transform="translate(-699 -3060)"/><rect id="Rounded_Rectangle_6" class="cls-2" x="116" y="195" width="56" height="2" rx="1" ry="1"/><path id="Rounded_Rectangle_6-2" class="cls-3" d="M806.2 3232.38l36.184-36.18a1 1 0 0 1 1.414 1.42l-36.184 36.18a1 1 0 0 1-1.414-1.42z" transform="translate(-699 -3060)"/><path id="Rounded_Rectangle_6-3" class="cls-4" d="M730.2 3311.38l27.184-27.18a1 1 0 0 1 1.414 1.42l-27.184 27.18a1 1 0 0 1-1.414-1.42z" transform="translate(-699 -3060)"/><rect id="Rounded_Rectangle_7" class="cls-5" y="195" width="54" height="2" rx="1" ry="1"/><path id="Rounded_Rectangle_7-2" class="cls-6" d="M726.322 3195.91l30.77 31.77a1 1 0 1 1-1.414 1.41l-30.77-31.77a1 1 0 1 1 1.414-1.41z" transform="translate(-699 -3060)"/><path id="Rounded_Rectangle_7-3" class="cls-7" d="M814.322 3284.91l16.77 16.77a1 1 0 1 1-1.414 1.41l-16.77-16.77a1 1 0 1 1 1.414-1.41z" transform="translate(-699 -3060)"/><rect id="Rounded_Rectangle_8" class="cls-8" x="83" y="228" width="2" height="28" rx="1" ry="1"/><circle class="cls-9" cx="142.5" cy="166.5" r="2.5"/><circle class="cls-10" cx="131.5" cy="214.5" r="1.5"/><circle class="cls-11" cx="30" cy="182" r="2"/><circle class="cls-10" cx="46.5" cy="112.5" r="1.5"/><circle class="cls-10" cx="52.5" cy="260.5" r="2.5"/><circle class="cls-12" cx="95.5" cy="135.5" r="2.5"/></svg>