<svg xmlns="http://www.w3.org/2000/svg" preserveAspectRatio="xMidYMid" width="22" height="22" viewBox="0 0 22 22"><defs><style>.cls-1 { fill: #f95548; fill-rule: evenodd; }</style></defs><path d="M21.542 10.542c.253 0 .458.205.458.458s-.205.458-.458.458h-3.542v2.75h3.542c.253 0 .458.205.458.459 0 .253-.205.458-.458.458h-3.542v1.875c0 .253-.747 1-1 1h-1.875v3.542c0 .253-.205.458-.458.458-.254 0-.459-.205-.459-.458v-3.542h-2.75v3.542c0 .253-.205.458-.458.458s-.458-.205-.458-.458v-3.542h-2.75v3.542c0 .253-.205.458-.459.458-.253 0-.458-.205-.458-.458v-3.542h-1.875c-.253 0-1-.747-1-1v-1.875h-3.542c-.253 0-.458-.205-.458-.458 0-.254.205-.459.458-.459h3.542v-2.75h-3.542c-.253 0-.458-.205-.458-.458s.205-.458.458-.458h3.542v-2.75h-3.542c-.253 0-.458-.205-.458-.459 0-.253.205-.458.458-.458h3.542v-1.875c0-.253.747-1 1-1h1.875v-3.542c0-.253.205-.458.458-.458.254 0 .459.205.459.458v3.542h2.75v-3.542c0-.253.205-.458.458-.458s.458.205.458.458v3.542h2.75v-3.542c0-.253.205-.458.459-.458.253 0 .458.205.458.458v3.542h1.875c.253 0 1 .747 1 1v1.875h3.542c.253 0 .458.205.458.458 0 .254-.205.459-.458.459h-3.542v2.75h3.542zm-4.542-5.542h-12v12h12v-12zm-10 2c-.253 0 0-.253 0 0zm8 0v8h-8v-8h8zm-7 7h6v-6h-6v6zm7-7c0-.253.253 0 0 0zm0 8c.253 0 0 .253 0 0zm-8 0c0 .253-.253 0 0 0z" class="cls-1"/></svg>