<svg xmlns="http://www.w3.org/2000/svg" preserveAspectRatio="xMidYMid" width="28" height="28" viewBox="0 0 28 28"><defs><style>.cls-1 { fill: #24a5e2; fill-rule: evenodd; }</style></defs><path d="M24.573 28h-21c-1.933 0-3.573-1.64-3.573-3.573v-10.427h5.87c.003 2.115.852 4.209 2.392 5.749 1.542 1.542 3.593 2.378 5.774 2.378 2.182 0 4.233-.84 5.775-2.383 1.54-1.539 2.389-3.629 2.392-5.744h5.797v10.427c0 1.933-1.494 3.573-3.427 3.573zm-10.609-19.882c3.221 0 5.833 2.612 5.833 5.833 0 3.222-2.612 5.834-5.833 5.834-3.222 0-5.834-2.612-5.834-5.834 0-3.221 2.612-5.833 5.834-5.833zm5.847.081c-1.542-1.542-3.593-2.405-5.775-2.405-2.181 0-4.232.858-5.774 2.401-.979.979-1.678 2.159-2.059 3.472h-6.203v-8.24c0-1.933 1.64-3.427 3.573-3.427h21c1.933 0 3.427 1.494 3.427 3.427v8.24h-6.13c-.381-1.313-1.08-2.489-2.059-3.468zm4.922-1.199c.516 0 .934-.418.934-.933v-2.8c0-.516-.418-.934-.934-.934h-2.8c-.515 0-.933.418-.933.934v2.8c0 .515.418.933.933.933h2.8z" class="cls-1"/></svg>