<svg xmlns="http://www.w3.org/2000/svg" preserveAspectRatio="xMidYMid" width="21" height="24" viewBox="0 0 21 24"><defs><style>.cls-1 { fill: #f95548; fill-rule: evenodd; }</style></defs><path d="M20.5 14.078c-.276 0-.5-.228-.5-.51 0-2.253-2.085-2.496-2.981-2.496-1.292 0-2.83.43-2.83 2.476 0 .282-.223.51-.5.51-.276 0-.5-.228-.5-.51 0-1.677-.797-2.675-2.189-2.802v10.822c0 1.387-1.401 2.424-2.654 2.424h-.25c-1.235 0-2.096-.997-2.096-2.424v-.638c0-.283.224-.511.5-.511s.5.228.5.511v.638c0 .679.288 1.403 1.096 1.403h.25c.749 0 1.654-.626 1.654-1.403v-10.848h-.154c-1.958 0-2.369 1.538-2.369 2.828 0 .282-.224.51-.5.51-.277 0-.5-.228-.5-.51 0-1.012-.283-2.358-2.724-2.358-2.753 0-2.753 1.789-2.753 2.378 0 .282-.224.51-.5.51s-.5-.228-.5-.51v-1.468c0-5.264 4.417-9.547 9.846-9.547h.154v-2.042c0-.283.224-.511.5-.511s.5.228.5.511v2.042l-.003.014c5.452.153 10.003 4.45 10.003 9.533v1.468c0 .282-.224.51-.5.51zm-9.801-10.504h-.853c-4.474 0-8.182 3.217-8.766 7.378.632-.515 1.531-.783 2.673-.783 1.467 0 2.53.448 3.137 1.292.532-1.129 1.556-1.762 2.956-1.762h.853c1.434 0 2.506.654 3.062 1.792.629-.925 1.753-1.44 3.258-1.44 1.216 0 2.206.331 2.893.929-.64-4.057-4.671-7.406-9.213-7.406z" class="cls-1"/></svg>