<svg xmlns="http://www.w3.org/2000/svg" width="64" height="64" viewBox="0 0 64 64"><defs><style>.cls-1 { fill-rule: evenodd; fill: url(#linear-gradient); }</style><linearGradient id="linear-gradient" x1="1053" y1="1728" x2="1117" y2="1664" gradientUnits="userSpaceOnUse"><stop offset="-.275" stop-color="#ffaa24"/><stop offset="1.275" stop-color="#fec70b"/></linearGradient></defs><path id="leads-icon.svg" class="cls-1" d="M1085 1727.99a32 32 0 1 1 32-32 32 32 0 0 1-32 32zm0-60a28 28 0 1 0 28 28 28.005 28.005 0 0 0-28-28zm0 32a4 4 0 1 1 2.18-7.34l-2.18 3.35 3.35-2.18a3.956 3.956 0 0 1 .65 2.17 4 4 0 0 1-4 4zm4.36-10.7a7.995 7.995 0 1 0 2.35 2.35l10.05-6.54a20.055 20.055 0 1 1-5.86-5.86z" transform="translate(-1053 -1664)"/></svg>