<svg xmlns="http://www.w3.org/2000/svg" preserveAspectRatio="xMidYMid" width="16" height="16" viewBox="0 0 16 16"><defs><style>.cls-1 { fill: #fff; fill-rule: evenodd; }</style></defs><path d="M3.645 16.009h-3.429v-10.802h3.429v10.802zm-1.714-12.277h-.023c-1.149 0-1.896-.83-1.896-1.866 0-1.058.769-1.866 1.942-1.866 1.172 0 1.893.808 1.916 1.866 0 1.036-.744 1.866-1.939 1.866zm14.074 12.277h-3.428v-5.778c0-1.455-.497-2.444-1.736-2.444-.948 0-1.512.669-1.757 1.314-.092.23-.117.551-.117.876v6.032h-3.425s.044-9.787 0-10.802h3.425v1.533c.456-.736 1.269-1.786 3.09-1.786 2.257 0 3.948 1.543 3.948 4.861v6.194zm-7.058-9.236l.02-.033v.033h-.02z" class="cls-1"/></svg>