<svg xmlns="http://www.w3.org/2000/svg" preserveAspectRatio="xMidYMid" width="32" height="32" viewBox="0 0 32 32"><defs><style>.cls-1 { fill: #14a4e3; fill-rule: evenodd; }</style></defs><path d="M16 31.997c-8.835 0-15.996-7.162-15.996-15.996 0-8.835 7.161-15.997 15.996-15.997s15.996 7.162 15.996 15.997c0 8.834-7.161 15.996-15.996 15.996zm-6.231-10.404h2.917v-9.172h-2.917v9.172zm1.478-13.593c-.998 0-1.652.686-1.652 1.584 0 .88.636 1.584 1.613 1.584h.02c1.017 0 1.65-.704 1.65-1.584-.019-.898-.633-1.584-1.631-1.584zm11.957 8.334c0-2.818-1.439-4.128-3.359-4.128-1.55 0-2.242.892-2.629 1.516v-1.301h-2.915c.037.862 0 9.172 0 9.172h2.915v-5.122c0-.276.02-.548.099-.744.208-.548.688-1.115 1.495-1.115 1.055 0 1.477.839 1.477 2.074v4.907h2.917v-5.259z" class="cls-1"/></svg>