<svg xmlns="http://www.w3.org/2000/svg" preserveAspectRatio="xMidYMid" width="27.969" height="28.03" viewBox="0 0 27.969 28.03"><defs><style>.cls-1 { fill: #24a5e2; fill-rule: evenodd; }</style></defs><path d="M6.348 28.016h-6.001v-18.903h6.001v18.903zm-3-21.485h-.04c-2.011 0-3.317-1.453-3.317-3.265 0-1.853 1.344-3.266 3.397-3.266 2.052 0 3.314 1.413 3.353 3.266 0 1.812-1.301 3.265-3.393 3.265zm24.63 21.485h-5.999v-10.113c0-2.545-.869-4.275-3.039-4.275-1.659 0-2.645 1.169-3.074 2.298-.161.403-.204.966-.204 1.534v10.556h-5.994s.076-17.128 0-18.903h5.994v2.681c.797-1.288 2.22-3.125 5.407-3.125 3.949 0 6.909 2.701 6.909 8.508v10.839zm-12.351-16.163l.035-.059v.059h-.035z" class="cls-1"/></svg>