<svg xmlns="http://www.w3.org/2000/svg" preserveAspectRatio="xMidYMid" width="16" height="16" viewBox="0 0 16 16"><defs><style>.cls-1 { fill: #fff; fill-rule: evenodd; }</style></defs><path d="M0 15.998v-12h16v12h-16zm12.906-8.012c-.239-.136-.545-.055-.683.181l-2.347 2.753-2.433-1.924c-.052-.075-.13-.127-.214-.166l-.073-.093c-.239-.135-.545-.055-.683.18l-3.5 3.584c-.138.234-.056.534.183.67s.545.055.683-.179l3.078-3.152 2.515 1.995c.125.182.373.26.605.215l.127-.036.027-.008.021-.016.098-.072.076-.085.016-.018 2.687-3.153c.138-.237.056-.539-.183-.676zm-11.906-5.487c0-.277.224-.501.5-.501h13v1h-13c-.276 0-.5-.223-.5-.499zm12-1.501h-9.5c-.276 0-.5-.224-.5-.499 0-.277.224-.501.5-.501h9.5c.276 0 .5.224.5.501 0 .275-.224.499-.5.499z" class="cls-1"/></svg>