<svg xmlns="http://www.w3.org/2000/svg" preserveAspectRatio="xMidYMid" width="19" height="25" viewBox="0 0 19 25"><defs><style>.cls-1 { fill: #919191; fill-rule: evenodd; }</style></defs><path d="M10.378 24h6.122c.276 0 .5.223.5.5 0 .276-.224.5-.5.5h-14c-.276 0-.5-.224-.5-.5 0-.277.224-.5.5-.5h6.121c-2.353-2.736-8.621-10.419-8.621-14.625 0-5.178 4.253-9.376 9.5-9.376s9.5 4.198 9.5 9.376c0 4.206-6.269 11.889-8.622 14.625zm-.878-23c-4.687 0-8.5 3.756-8.5 8.375 0 3.596 5.581 10.76 8.5 14.118 2.919-3.36 8.5-10.525 8.5-14.118 0-4.619-3.813-8.375-8.5-8.375zm0 11c-1.933 0-3.5-1.568-3.5-3.501 0-1.932 1.567-3.5 3.5-3.5s3.5 1.568 3.5 3.5c0 1.933-1.567 3.501-3.5 3.501zm0-6.001c-1.381 0-2.5 1.12-2.5 2.5 0 1.381 1.119 2.501 2.5 2.501s2.5-1.12 2.5-2.501c0-1.38-1.119-2.5-2.5-2.5z" class="cls-1"/></svg>