<svg xmlns="http://www.w3.org/2000/svg" preserveAspectRatio="xMidYMid" width="177" height="31" viewBox="0 0 177 31"><defs><style>.cls-1 { fill: #31b744; } .cls-1, .cls-2 { fill-rule: evenodd; } .cls-2 { fill: #81878c; }</style></defs><path d="M21.373 29.837v-13.762c0-.76.618-1.378 1.378-1.378h8.232c.013.264.02.531.02.798 0 6.48-3.98 12.028-9.63 14.342zm-4.015-13.762v14.802c-.611.073-1.23.115-1.86.115-.63 0-1.249-.042-1.859-.115v-14.802c0-2.972-2.42-5.391-5.394-5.391h-7.488c2.025-6.203 7.858-10.687 14.741-10.687s12.715 4.484 14.739 10.687h-7.486c-2.974 0-5.393 2.419-5.393 5.391zm-7.735 0v13.763c-5.65-2.314-9.631-7.863-9.631-14.343 0-.267.007-.534.02-.798h8.233c.76 0 1.378.618 1.378 1.378z" class="cls-1"/><path d="M175.083 23.806l-.361-1.414h-.135c-.631 1.077-1.826 1.66-3.38 1.66-2.863 0-4.53-2.019-4.53-5.565 0-4.084 2.163-6.306 5.566-6.306.901 0 1.668.157 2.163.381v-5.026c.586-.359 1.375-.539 2.592-.539v16.405c-.495.269-1.194.404-1.915.404zm-.654-9.066c-.45-.225-1.036-.337-1.668-.337-2.433 0-3.447 1.615-3.447 3.949 0 2.267.969 3.344 2.726 3.344 1.217 0 1.871-.516 2.389-1.01v-5.946zm-9.375-.023c-1.329 0-2.23.808-2.726 2.267v6.485c-.248.135-.653.202-1.308.202-.63 0-1.036-.067-1.284-.202v-10.637c.496-.27 1.24-.404 2.096-.404l.18 1.997h.136c.383-1.302 1.216-2.244 2.996-2.244.474 0 .857.068 1.128.202.224.404.36.898.36 1.616 0 .539-.068.852-.158 1.077-.361-.202-.856-.359-1.42-.359zm-14.693 4.219c.113 2.02 1.465 2.94 3.786 2.94 1.442 0 2.659-.359 3.492-.786.068.719-.225 1.706-.653 2.155-.721.426-1.938.807-3.471.807-3.763 0-5.813-2.243-5.813-5.812 0-3.613 2.118-6.059 5.566-6.059 3.109 0 4.574 1.952 4.574 4.758 0 .695-.09 1.391-.293 1.997h-7.188zm2.794-4.735c-1.668 0-2.681 1.1-2.794 2.76h4.957c.158-1.347-.292-2.76-2.163-2.76zm-8.474 9.47c-.631 0-1.036-.067-1.284-.202v-6.53c0-1.504-.496-2.401-2.118-2.401-1.442 0-2.254.695-2.705 1.503v7.428c-.248.135-.653.202-1.307.202-.631 0-1.037-.067-1.284-.202v-15.933c.586-.359 1.374-.539 2.591-.539v4.017c0 1.235-.09 2.222-.248 3.097h.136c.496-1.032 1.532-1.93 3.695-1.93 1.781 0 3.832.606 3.832 4.264v7.024c-.249.135-.655.202-1.308.202zm-16.114.381c-.788 0-1.622-.112-2.163-.403v5.139c-.248.134-.653.202-1.307.202-.631 0-1.037-.068-1.284-.202v-15.956c.496-.27 1.239-.404 2.095-.404l.158 1.705h.135c.496-1.167 1.713-1.952 3.448-1.952 2.637 0 4.485 1.773 4.485 5.521 0 3.815-1.871 6.35-5.567 6.35zm.249-9.56c-1.285 0-1.984.629-2.434 1.28v5.7c.473.179 1.036.314 1.735.314 2.411 0 3.38-1.638 3.38-3.882 0-2.29-.992-3.412-2.681-3.412zm-14.378 4.444c.113 2.02 1.465 2.94 3.786 2.94 1.442 0 2.659-.359 3.493-.786.068.719-.225 1.706-.654 2.155-.721.426-1.938.807-3.47.807-3.764 0-5.814-2.243-5.814-5.812 0-3.613 2.118-6.059 5.566-6.059 3.11 0 4.574 1.952 4.574 4.758 0 .695-.09 1.391-.293 1.997h-7.188zm2.794-4.735c-1.668 0-2.681 1.1-2.794 2.76h4.957c.159-1.347-.292-2.76-2.163-2.76zm-8.474 9.47c-.631 0-1.037-.067-1.284-.202v-6.53c0-1.504-.496-2.401-2.119-2.401-1.442 0-2.254.695-2.704 1.503v7.428c-.248.135-.653.202-1.307.202-.631 0-1.037-.067-1.284-.202v-15.933c.585-.359 1.374-.539 2.591-.539v4.017c0 1.235-.09 2.222-.248 3.097h.135c.496-1.032 1.532-1.93 3.696-1.93 1.78 0 3.831.606 3.831 4.264v7.024c-.248.135-.654.202-1.307.202zm-16.384.449c-1.712 0-3.335-.337-4.461-.965-.451-.696-.632-1.863-.496-2.671 1.262.786 3.29 1.302 4.98 1.302 2.254 0 3.177-.898 3.177-2.334 0-3.77-7.751-1.929-7.751-7.54 0-2.985 1.983-4.578 5.273-4.578 1.465 0 2.817.314 3.898 1.009.429.652.654 1.773.496 2.604-1.172-.786-2.682-1.325-4.237-1.325-1.848 0-2.726.741-2.726 1.931 0 3.546 7.729 1.84 7.729 7.562 0 3.771-2.659 5.005-5.882 5.005zm-8.75-.449c-.631 0-1.037-.067-1.284-.202v-6.53c0-1.504-.496-2.401-2.119-2.401-1.442 0-2.253.695-2.704 1.503v7.428c-.248.135-.653.202-1.307.202-.631 0-1.037-.067-1.284-.202v-15.933c.586-.359 1.374-.539 2.591-.539v4.017c0 1.235-.09 2.222-.248 3.097h.135c.496-1.032 1.533-1.93 3.696-1.93 1.78 0 3.831.606 3.831 4.264v7.024c-.248.135-.654.202-1.307.202zm-14.22.381c-3.493 0-5.408-2.199-5.408-5.812 0-4.151 2.456-6.059 5.701-6.059 1.127 0 2.118.224 2.749.629.383.515.586 1.615.451 2.378-.834-.494-1.623-.74-2.682-.74-2.185 0-3.583 1.099-3.583 3.613 0 2.513 1.419 3.658 3.606 3.658 1.126 0 2.073-.292 2.907-.741.09.741-.226 1.885-.699 2.401-.721.382-1.758.673-3.042.673zm-14.018-5.116c.113 2.02 1.465 2.94 3.786 2.94 1.443 0 2.659-.359 3.493-.786.068.719-.225 1.706-.653 2.155-.721.426-1.939.807-3.471.807-3.763 0-5.814-2.243-5.814-5.812 0-3.613 2.119-6.059 5.566-6.059 3.11 0 4.575 1.952 4.575 4.758 0 .695-.09 1.391-.293 1.997h-7.189zm2.795-4.735c-1.668 0-2.682 1.1-2.795 2.76h4.958c.158-1.347-.293-2.76-2.163-2.76zm-8.586-3.995v13.263c-.249.157-.699.225-1.353.225-.653 0-1.081-.068-1.329-.225v-13.263h-4.71c-.135-.269-.203-.673-.203-1.189s.068-.898.203-1.167h12.101c.135.269.203.651.203 1.167s-.068.92-.203 1.189h-4.709z" class="cls-2"/></svg>