<svg xmlns="http://www.w3.org/2000/svg" preserveAspectRatio="xMidYMid" width="25" height="20" viewBox="0 0 25 20"><defs><style>.cls-1 { fill: #919191; fill-rule: evenodd; }</style></defs><path d="M23.437 19.999h-21.875c-.863 0-1.562-.689-1.562-1.539v-16.923c0-.85.699-1.539 1.562-1.539h21.875c.863 0 1.563.689 1.563 1.539v16.923c0 .85-.7 1.539-1.563 1.539zm.563-17.999c0-.553-.448-1-1-1h-21c-.552 0-1 .447-1 1v16c0 .552.448 1 1 1h21c.552 0 1-.448 1-1v-16zm-8 1.012h6v5.998h-6v-5.998zm1 4.992h4v-4.019h-4v4.019zm-14 5.996h11v1.005h-11v-1.005zm0-3.009h11v1.005h-11v-1.005z" class="cls-1"/></svg>