<svg xmlns="http://www.w3.org/2000/svg" preserveAspectRatio="xMidYMid" width="40" height="40" viewBox="0 0 40 40"><defs><style>.cls-1 { fill: #fff; fill-rule: evenodd; }</style></defs><path d="M20 39.996c-11.043 0-19.995-8.952-19.995-19.995 0-11.044 8.952-19.996 19.995-19.996 11.043 0 19.996 8.952 19.996 19.996 0 11.043-8.953 19.995-19.996 19.995zm-7.789-13.005h3.647v-11.465h-3.647v11.465zm1.848-16.991c-1.248 0-2.065.857-2.065 1.981 0 1.099.794 1.98 2.017 1.98h.024c1.271 0 2.062-.881 2.062-1.98-.024-1.124-.791-1.981-2.038-1.981zm14.946 10.417c0-3.521-1.799-5.16-4.199-5.16-1.937 0-2.802 1.115-3.286 1.896v-1.627h-3.644c.047 1.077 0 11.465 0 11.465h3.644v-6.402c0-.345.025-.686.123-.93.261-.685.861-1.394 1.869-1.394 1.319 0 1.847 1.049 1.847 2.593v6.133h3.646v-6.574z" class="cls-1"/></svg>