<svg xmlns="http://www.w3.org/2000/svg" width="47" height="42" viewBox="0 0 47 42"><defs><style>.cls-1 { fill-rule: evenodd; fill: url(#linear-gradient); }</style><linearGradient id="linear-gradient" x1="831.5" y1="1290" x2="873.5" y2="1332" gradientUnits="userSpaceOnUse"><stop offset="-.25" stop-color="#25a5e3"/><stop offset="1.25" stop-color="#0074bf"/></linearGradient></defs><path id="marketing-sales-icon.svg" class="cls-1" d="M875.247 1309.43l-.269.07v17.16a5.333 5.333 0 0 1-5.321 5.34h-34.314a5.333 5.333 0 0 1-5.321-5.34v-17.16l-.269-.07a1.026 1.026 0 0 1-.753-.99v-10.24a3.075 3.075 0 0 1 3.065-3.08h13.283v-1.97a3.149 3.149 0 0 1 3.144-3.15h8.016a3.149 3.149 0 0 1 3.144 3.15v1.97h13.283a3.075 3.075 0 0 1 3.065 3.08v10.24a1.026 1.026 0 0 1-.753.99zm-17.638-16.28a1.1 1.1 0 0 0-1.1-1.1h-8.016a1.1 1.1 0 0 0-1.1 1.1v1.97h10.218v-1.97zm-8.174 12.22a3.065 3.065 0 1 0 3.065-3.08 3.073 3.073 0 0 0-3.065 3.08zm23.5 4.69l-18.038 4.93a9.138 9.138 0 0 1-4.794 0l-18.038-4.93v16.6a3.284 3.284 0 0 0 3.278 3.29h34.314a3.284 3.284 0 0 0 3.278-3.29v-16.6zm-19.413-4.69a1.022 1.022 0 1 1-1.022-1.03 1.024 1.024 0 0 1 1.022 1.03z" transform="translate(-829 -1290)"/></svg>