<svg xmlns="http://www.w3.org/2000/svg" preserveAspectRatio="xMidYMid" width="24" height="24" viewBox="0 0 24 24"><defs><style>.cls-1 { fill: #f95548; fill-rule: evenodd; }</style></defs><path d="M12 24c-6.628 0-12-5.373-12-12s5.372-12 12-12c6.627 0 12 5.373 12 12s-5.373 12-12 12zm11-12c0-1.59-.346-3.098-.955-4.463l-9.673 4.836-4.835 9.672c1.366.609 2.873.955 4.463.955 6.065 0 11-4.935 11-11zm-22 0c0 4.12 2.28 7.714 5.642 9.598l4.687-9.374-9.374-4.687c-.609 1.365-.955 2.873-.955 4.463zm11-11c-4.12 0-7.714 2.28-9.598 5.642l9.598 4.799 9.598-4.799c-1.884-3.362-5.478-5.642-9.598-5.642z" class="cls-1"/></svg>