<svg xmlns="http://www.w3.org/2000/svg" xmlns:xlink="http://www.w3.org/1999/xlink" preserveAspectRatio="xMidYMid" width="188" height="169.19" viewBox="0 0 188 169.19"><defs><style>.cls-1 { stroke: #fff; stroke-linecap: round; stroke-linejoin: round; stroke-width: 3px; filter: url(#drop-shadow-1); fill: none; fill-rule: evenodd; }</style><filter id="drop-shadow-1" filterUnits="userSpaceOnUse"><feOffset dy="1" in="SourceAlpha"/><feGaussianBlur stdDeviation="1.414" result="dropBlur"/><feFlood flood-opacity=".18"/><feComposite operator="in" in2="dropBlur" result="dropShadowComp"/><feComposite in="SourceGraphic" result="shadowed"/></filter></defs><path d="M179.861 78.631l-1.015.279v65.133c0 11.163-9.01 20.245-20.084 20.245h-129.512c-11.074 0-20.084-9.082-20.084-20.245v-65.133l-1.015-.279c-1.677-.462-2.841-1.997-2.841-3.751v-38.873c0-6.431 5.189-11.662 11.569-11.662h50.132v-7.473c0-6.596 5.326-11.964 11.869-11.964h30.252c6.544 0 11.868 5.368 11.868 11.964v7.473h50.133c6.38 0 11.569 5.231 11.569 11.662v38.873c0 1.754-1.163 3.289-2.841 3.751zm-66.573-61.759c0-2.31-1.864-4.189-4.156-4.189h-30.252c-2.291 0-4.156 1.879-4.156 4.189v7.473h38.564v-7.473zm-30.851 46.346c0 6.431 5.19 11.662 11.569 11.662 6.38 0 11.569-5.231 11.569-11.662 0-6.431-5.189-11.662-11.569-11.662-6.379 0-11.569 5.231-11.569 11.662zm88.696 17.812l-68.081 18.717c-2.96.812-6.003 1.219-9.046 1.219-3.043 0-6.086-.407-9.046-1.219l-68.081-18.717v63.013c0 6.877 5.549 12.471 12.371 12.471h129.512c6.822 0 12.371-5.594 12.371-12.471v-63.013zm-73.271-17.812c0 2.143-1.73 3.888-3.856 3.888s-3.856-1.745-3.856-3.888 1.73-3.887 3.856-3.887 3.856 1.744 3.856 3.887z" id="path-1" class="cls-1" stroke="inherit" filter="none" fill="inherit"/><use xlink:href="#path-1" stroke="#fff" filter="none" fill="none"/></svg>