<svg xmlns="http://www.w3.org/2000/svg" preserveAspectRatio="xMidYMid" width="15" height="24" viewBox="0 0 15 24"><defs><style>.cls-1 { fill: #f95548; fill-rule: evenodd; }</style></defs><path d="M12.721 24h-11c-1.029 0-1.721-.804-1.721-2v-17.5c0-.276.224-.5.5-.5h.5v-3.5c0-.276.224-.5.5-.5h12c.276 0 .5.224.5.5v3.5h.5c.276 0 .5.224.5.5v17.5c0 1.144-1.203 2-2.279 2zm.279-23h-11v3h11v-3zm1 4h-13v17c0 .373.094 1 .721 1h11c.564 0 1.279-.471 1.279-1v-17zm-6 11h-1v-2h-2v-1h2v-2h1v2h2v1h-2v2zm-4.279-13h-1v-1h1v1zm2 0h-1v-1h1v1zm2 0h-1v-1h1v1zm2 0h-1v-1h1v1zm2 0h-1v-1h1v1z" class="cls-1"/></svg>