<svg xmlns="http://www.w3.org/2000/svg" width="32" height="34" viewBox="0 0 32 34"><defs><style>.cls-1 { fill: #fff; } .cls-2 { fill-rule: evenodd; fill: url(#linear-gradient); }</style><linearGradient id="linear-gradient" x1="530" y1="4157" x2="562" y2="4125" gradientUnits="userSpaceOnUse"><stop offset="-.25" stop-color="#31b744"/><stop offset="-.246" stop-color="#31b744"/><stop offset="1.25" stop-color="#13c2ce"/></linearGradient></defs><path class="cls-1" d="M2 10h28v22h-28z"/><path id="report" class="cls-2" d="M560 4158h-28a2 2 0 0 1-2-2v-28a2 2 0 0 1 2-2h6v-1a1 1 0 0 1 2 0v1h12v-1a1 1 0 0 1 2 0v1h6a2 2 0 0 1 2 2v28a2 2 0 0 1-2 2zm-22-30h-5a1 1 0 0 0-1 1v3h6v-4zm14 0h-12v4h12v-4zm8 1a1 1 0 0 0-1-1h-5v4h6v-3zm0 5h-28v21a1 1 0 0 0 1 1h26a1 1 0 0 0 1-1v-21zm-7 15a2 2 0 1 1 2-2 2 2 0 0 1-2 2zm-14-6a2 2 0 1 1 2-2 2 2 0 0 1-2 2z" transform="translate(-530 -4124)"/></svg>