<svg xmlns="http://www.w3.org/2000/svg" preserveAspectRatio="xMidYMid" width="24" height="24" viewBox="0 0 24 24"><defs><style>.cls-1 { fill: #f95548; fill-rule: evenodd; }</style></defs><path d="M21.721 24h-18.721c-1.654 0-3-1.346-3-3v-16c0-1.196.691-2 1.721-2h3.279v-1c0-1.196.691-2 1.721-2h15c1.076 0 2.279.855 2.279 2v20c0 1.145-1.203 2-2.279 2zm-20-20c-.627 0-.721.627-.721 1v16c0 1.103.897 2 2 2 1.102 0 2-.897 2-2v-17h-3.279zm21.279-2c0-.529-.716-1-1.279-1h-15c-.627 0-.721.627-.721 1v19c0 .771-.301 1.468-.78 2h16.501c.563 0 1.279-.471 1.279-1v-20zm-1.5 12h-6c-.276 0-.5-.224-.5-.5v-6c0-.277.224-.5.5-.5h6c.276 0 .5.223.5.5v6c0 .276-.224.5-.5.5zm-.5-6h-5v5h5v-5zm0-3h-5c-.276 0-.5-.224-.5-.5s.224-.5.5-.5h5c.276 0 .5.224.5.5s-.224.5-.5.5zm-8 15h-5c-.276 0-.5-.224-.5-.5s.224-.5.5-.5h5c.276 0 .5.224.5.5s-.224.5-.5.5zm0-3h-5c-.276 0-.5-.223-.5-.5 0-.276.224-.5.5-.5h5c.276 0 .5.224.5.5 0 .277-.224.5-.5.5zm0-3h-5c-.276 0-.5-.224-.5-.5s.224-.5.5-.5h5c.276 0 .5.224.5.5s-.224.5-.5.5zm0-3h-5c-.276 0-.5-.224-.5-.5s.224-.5.5-.5h5c.276 0 .5.224.5.5s-.224.5-.5.5zm0-3h-5c-.276 0-.5-.224-.5-.5 0-.277.224-.5.5-.5h5c.276 0 .5.223.5.5 0 .276-.224.5-.5.5zm0-3h-5c-.276 0-.5-.224-.5-.5s.224-.5.5-.5h5c.276 0 .5.224.5.5s-.224.5-.5.5zm3 11h5c.276 0 .5.224.5.5 0 .277-.224.5-.5.5h-5c-.276 0-.5-.223-.5-.5 0-.276.224-.5.5-.5zm0 3h5c.276 0 .5.224.5.5s-.224.5-.5.5h-5c-.276 0-.5-.224-.5-.5s.224-.5.5-.5z" class="cls-1"/></svg>