<svg xmlns="http://www.w3.org/2000/svg" preserveAspectRatio="xMidYMid" width="24.12" height="11" viewBox="0 0 24.12 11"><defs><style>.cls-1 { fill: #f95548; fill-rule: evenodd; }</style></defs><path d="M13.823 11c-1.737 0-3.887-.965-5.614-1.741-.741-.332-1.493-.668-2.019-.831v.709c0 .266.21.863-.07.863h-6c-.28 0-.001-.597-.001-.863v-8.658c0-.266.227-.481.506-.481h5.059c.28 0 .506.215.506.481v1.458c2.925.098 4.436 1.004 5.439 1.616.433.264.775.473 1.024.473l.501-.013c1.249-.043 3.138-.109 3.992.827.246.27.381.591.405.96.674-.109 1.541-.783 2.262-1.344.827-.643 1.48-1.151 2.104-1.151 1.406 0 2.213.789 2.213 2.164 0 2.04-7.602 5.531-10.307 5.531zm-12.692-10.04l-.011 8.04h4l.058-8.04h-4.047zm20.786 3.307c-.263 0-.957.539-1.464.934-1.07.831-2.278 1.761-3.446 1.531h-6.77c-.28 0-.506-.215-.506-.481s.226-.481.506-.481h6.287c-.028-.143-.087-.239-.143-.299-.536-.588-2.264-.528-3.19-.497l-.538.014c-.546 0-.998-.276-1.571-.625-.958-.585-2.27-1.37-4.892-1.464v4.534c.63.144 1.455.51 2.451.956 1.636.735 3.672 1.65 5.182 1.65 2.98 0 9.295-3.58 9.295-4.57 0-.831-.37-1.202-1.201-1.202z" class="cls-1"/></svg>