<svg xmlns="http://www.w3.org/2000/svg" preserveAspectRatio="xMidYMid" width="12.969" height="16" viewBox="0 0 12.969 16"><defs><style>.cls-1 { fill: #a2a8ae; fill-rule: evenodd; }</style></defs><path d="M12.812 13.173l-.051-.174c-.144-.568-3.014-1.864-3.261-1.918l-.205-.018c-.429.01-.951.294-2.056.909-.988-.625-2.226-2.069-2.782-2.893-.602-.891-1.287-2.338-1.436-3.361 1.258-.703 1.786-1.011 1.897-1.431.06-.225.089-3.139-.402-3.514l-.146-.12c-.308-.261-.774-.654-1.38-.64-.148.005-.294.033-.438.085-.436.162-1.515.614-2.106 1.337-.367.451-1.364 4.938 1.608 9.343 2.937 4.357 7.429 5.248 8.133 5.23h.019l.063-.006c.975-.152 1.907-.823 2.264-1.105.656-.52.411-1.303.279-1.724z" class="cls-1"/></svg>