<svg xmlns="http://www.w3.org/2000/svg" preserveAspectRatio="xMidYMid" width="50" height="46" viewBox="0 0 50 46"><defs><style>.cls-1 { fill: #fff; fill-rule: evenodd; }</style></defs><path d="M46.874 45.994h-43.75c-1.726 0-3.125-1.421-3.125-3.171v-38.086h.142c.356-2.661 2.402-4.742 4.983-4.742h30.36c2.83 0 6.516 2.97 6.516 6.005v2l4.874-.074c1.726 0 3.125 1.419 3.125 3.172v31.725c0 1.75-1.399 3.171-3.125 3.171zm-8.874-39.994c0-.875-1.137-2-2-2h-30c-.863 0-2 1.125-2 2v2h34v-2zm1.037 24.108c-2.588 0-4.687-2.131-4.687-4.758 0-2.629 2.099-4.759 4.687-4.759 2.59 0 4.688 2.13 4.688 4.759 0 2.627-2.098 4.758-4.688 4.758zm.025-6.316c-.863 0-1.563.71-1.563 1.586 0 .876.7 1.586 1.563 1.586s1.563-.71 1.563-1.586c0-.876-.7-1.586-1.563-1.586z" class="cls-1"/></svg>