<svg xmlns="http://www.w3.org/2000/svg" preserveAspectRatio="xMidYMid" width="11" height="15" viewBox="0 0 11 15"><defs><style>.cls-1 { fill: #fff; fill-rule: evenodd; }</style></defs><path d="M6 12.999v.999h.5c.276 0 .5.224.5.501 0 .276-.224.5-.5.5h-2c-.276 0-.5-.224-.5-.5 0-.277.224-.501.5-.501h.5v-.999c-2.762 0-5-2.239-5-5.001v-.999h1v.999c0 2.21 1.791 4.001 4 4.001h1c2.209 0 4-1.791 4-4.001v-.999h1v.999c0 2.762-2.239 5.001-5 5.001zm2-10.5c0-1.381-1.12-2.5-2.5-2.5-1.381 0-2.5 1.119-2.5 2.5v5c0 1.38 1.119 2.5 2.5 2.5 1.38 0 2.5-1.12 2.5-2.5v-5z" class="cls-1"/></svg>