<svg xmlns="http://www.w3.org/2000/svg" width="32" height="32" viewBox="0 0 32 32"><defs><style>.cls-1 { fill: #fff; } .cls-2 { fill-rule: evenodd; fill: url(#linear-gradient); }</style><linearGradient id="linear-gradient" x1="1038" y1="3955" x2="1006" y2="3923" gradientUnits="userSpaceOnUse"><stop offset="-.25" stop-color="#0074bf"/><stop offset="1.25" stop-color="#25a5e3"/></linearGradient></defs><circle class="cls-1" cx="16.5" cy="15.5" r="15.5"/><path id="_1-location_-_compass_direction" class="cls-2" d="M1022 3923a16 16 0 1 0 16 16 16 16 0 0 0-16-16zm0 30a14 14 0 1 1 14-14 14 14 0 0 1-14 14zm-7.99-5.99l10.65-5.33 5.33-10.67-10.65 5.34zm12.65-12.66l-2.85 5.13-2.28-2.28zm-4.17 6.47l-5.15 2.86 2.86-5.15z" transform="translate(-1006 -3923)"/></svg>