<svg xmlns="http://www.w3.org/2000/svg" preserveAspectRatio="xMidYMid" width="20" height="24.15" viewBox="0 0 20 24.15"><defs><style>.cls-1 { fill: #f95548; fill-rule: evenodd; }</style></defs><path d="M19.5 24.025h-1.5v.005c0 .276-.724-.005-1-.005h-14c-.276 0-1 .281-1 .005v-.005h-1.5c-.276 0-.5-.223-.5-.5 0-.276.224-.5.5-.5h1.5v-6.995l2.528-1h-.528v-12c0-.208-.195-.927 0-1l5.323-1.88c.142-.125.489-.201.677-.12l6 2c.204.068 0 .784 0 1v12h-.746l2.746 1v6.995h1.5c.276 0 .5.224.5.5 0 .277-.224.5-.5.5zm-11.5-1h4v-3.995h-4v3.995zm7-19.995l-5-2-5 2v11.813l4.365-1.726c.129-.091.308-.116.469-.061l5.166 1.881v-11.907zm2 14l-7.292-2.972-6.708 2.972v5.995h4v-4.995c.295-.083.724-.005 1-.005h4l1 .005v4.995h4v-5.995zm-9.299-11.463c0-1.103.897-2 2-2s2 .897 2 2-.897 2-2 2-2-.897-2-2zm3 0c0-.552-.449-1-1-1-.552 0-1 .448-1 1 0 .551.448 1 1 1 .551 0 1-.449 1-1zm-8.701 10.463c-.212.063 0-.221 0 0zm16 0c0-.226.218.059 0 0z" class="cls-1"/></svg>