<svg xmlns="http://www.w3.org/2000/svg" xmlns:xlink="http://www.w3.org/1999/xlink" preserveAspectRatio="xMidYMid" width="171" height="174.12" viewBox="0 0 171 174.12"><defs><style>.cls-1 { stroke: #fff; stroke-linecap: round; stroke-linejoin: round; stroke-width: 3px; filter: url(#drop-shadow-1); fill: none; fill-rule: evenodd; }</style><filter id="drop-shadow-1" filterUnits="userSpaceOnUse"><feOffset dy="1" in="SourceAlpha"/><feGaussianBlur stdDeviation="1.414" result="dropBlur"/><feFlood flood-opacity=".18"/><feComposite operator="in" in2="dropBlur" result="dropShadowComp"/><feComposite in="SourceGraphic" result="shadowed"/></filter></defs><path d="M123.748 169.191c-1.465 0-2.913-.078-4.341-.228-.358.121-.724.228-1.122.228h-101.989c-6.026 0-10.928-4.912-10.928-10.951v-127.76c0-6.038 4.902-10.95 10.928-10.95h18.212v-3.651c0-6.038 4.902-10.951 10.927-10.951 6.026 0 10.928 4.913 10.928 10.951v3.651h36.424v-3.651c0-6.038 4.902-10.951 10.928-10.951 6.025 0 10.927 4.913 10.927 10.951v3.651h25.497c6.026 0 10.928 4.912 10.928 10.95v64.982c8.903 7.703 14.569 19.068 14.569 31.751 0 23.146-18.79 41.978-41.888 41.978zm-74.67-153.312c0-2.014-1.635-3.65-3.643-3.65s-3.642 1.636-3.642 3.65v17.87c0 2.014 1.634 3.651 3.642 3.651s3.643-1.637 3.643-3.651v-17.87zm58.279 0c0-2.014-1.634-3.65-3.642-3.65s-3.643 1.636-3.643 3.65v17.87c0 2.014 1.635 3.651 3.643 3.651s3.642-1.637 3.642-3.651v-17.87zm16.391 76.656c-19.08 0-34.603 15.557-34.603 34.678 0 19.121 15.523 34.677 34.603 34.677 19.08 0 34.604-15.556 34.604-34.677 0-19.121-15.524-34.678-34.604-34.678zm-6.531 53.685c-.711.713-1.643 1.069-2.575 1.069-.932 0-1.864-.356-2.575-1.069l-10.928-10.951c-1.423-1.426-1.423-3.736 0-5.162 1.423-1.426 3.728-1.426 5.151 0l8.352 8.37 26.564-26.621c1.423-1.426 3.728-1.426 5.151 0 1.423 1.426 1.423 3.736 0 5.162l-29.14 29.202z" id="path-1" class="cls-1" stroke="inherit" filter="none" fill="inherit"/><use xlink:href="#path-1" stroke="#fff" filter="none" fill="none"/></svg>