<svg xmlns="http://www.w3.org/2000/svg" width="44" height="45" viewBox="0 0 44 45"><defs><style>.cls-1 { fill-rule: evenodd; fill: url(#linear-gradient); }</style><linearGradient id="linear-gradient" x1="1027" y1="1290.5" x2="1071" y2="1334.5" gradientUnits="userSpaceOnUse"><stop offset="-.25" stop-color="#96a0ff"/><stop offset="1.25" stop-color="#816de9"/></linearGradient></defs><path id="retainer-based-icon.svg" class="cls-1" d="M1059.5 1335a11.706 11.706 0 0 1-1.19-.06 1.066 1.066 0 0 1-.31.06h-28a3.009 3.009 0 0 1-3-3v-35a3.009 3.009 0 0 1 3-3h5v-1a3 3 0 0 1 6 0v1h10v-1a3 3 0 0 1 6 0v1h7a3.009 3.009 0 0 1 3 3v17.8a11.488 11.488 0 0 1-7.5 20.2zm-20.5-42a1 1 0 0 0-2 0v4.9a1 1 0 0 0 2 0v-4.9zm16 0a1 1 0 0 0-2 0v4.9a1 1 0 0 0 2 0v-4.9zm4.5 21a9.5 9.5 0 1 0 9.5 9.5 9.509 9.509 0 0 0-9.5-9.5zm-1.79 14.71a1.014 1.014 0 0 1-1.42 0l-3-3a1 1 0 0 1 1.42-1.42l2.29 2.3 7.29-7.3a1 1 0 0 1 1.42 1.42z" transform="translate(-1027 -1290)"/></svg>