<svg xmlns="http://www.w3.org/2000/svg" width="60" height="56.03" viewBox="0 0 60 56.03"><defs><style>.cls-1 { fill-rule: evenodd; fill: url(#linear-gradient); }</style><linearGradient id="linear-gradient" x1="1246.985" y1="1728.03" x2="1303.015" y2="1672" gradientUnits="userSpaceOnUse"><stop offset="-.25" stop-color="#31b744"/><stop offset="-.246" stop-color="#31b744"/><stop offset="1.25" stop-color="#13c2ce"/></linearGradient></defs><path id="sales-icon.svg" class="cls-1" d="M1303 1675.99h-2v36a4 4 0 0 1-4 4h-15.28l4.98 9.17a1.76 1.76 0 0 1-.81 2.6 2.452 2.452 0 0 1-3.04-.7l-5.55-10.23a1.666 1.666 0 0 1-.27-.84h-4.06a1.666 1.666 0 0 1-.27.84l-5.55 10.23a2.452 2.452 0 0 1-3.04.7 1.76 1.76 0 0 1-.81-2.6l4.97-9.17h-15.27a4 4 0 0 1-4-4v-36h-2a2 2 0 0 1 0-4h56a2 2 0 0 1 0 4zm-6 .01h-1.98l-.02-.01h-40l-.02.01h-1.98v33.99a1.993 1.993 0 0 0 2 2h40a2 2 0 0 0 2-2v-33.99zm-34 19.99a2.006 2.006 0 0 1 2 2v8a2 2 0 0 1-4 0v-8a2 2 0 0 1 2-2zm11.98-15.99h.04a2 2 0 0 1 1.98 1.99v24a2 2 0 0 1-4 0v-24a1.993 1.993 0 0 1 1.98-1.99zm12.02 5.99a2.006 2.006 0 0 1 2 2v18a2 2 0 0 1-4 0v-18a2 2 0 0 1 2-2z" transform="translate(-1245 -1672)"/></svg>