<svg xmlns="http://www.w3.org/2000/svg" xmlns:xlink="http://www.w3.org/1999/xlink" viewBox="0 0 304 272.1" enable-background="new 0 0 304 272.1"><style type="text/css">.st0{fill:none;stroke:#000000;stroke-width:2;stroke-miterlimit:10;} .st1{fill:#FFFFFF;} .st2{fill:#FFFFFF;stroke:#000000;stroke-width:2;stroke-miterlimit:10;} .st3{fill:#FD9E9D;stroke:#000000;stroke-width:2;stroke-miterlimit:10;} .st4{fill:#B5EAFE;stroke:#000000;stroke-width:2;stroke-linejoin:bevel;stroke-miterlimit:10;} .st5{clip-path:url(#SVGID_1_);} .st6{fill:#FFD2FD;stroke:#000000;stroke-width:2;stroke-miterlimit:10;} .st7{fill:#B5EAFE;stroke:#000000;stroke-width:2;stroke-miterlimit:10;} .st8{fill:#FFC0C0;stroke:#000000;stroke-width:2;stroke-miterlimit:10;} .st9{fill:#FFE49B;stroke:#000000;stroke-width:2;stroke-miterlimit:10;} .st10{fill:#D4FED7;stroke:#000000;stroke-width:2;stroke-miterlimit:10;}</style><path class="st0" d="M304 135h-304m68.2 128l167.8-256m-167.8 0l167.8 256"/><path class="st1" d="M32.1 67.5l120-67.5 120 67.5v135l-120 67.5-120-67.5z"/><path class="st2" d="M48.1 76.5l104-58.5 104 58.5v117l-104 58.5-104-58.5z"/><path class="st3" d="M136.1 255.1h32v16h-32zm-8-40h48v48h-48z"/><path class="st4" d="M212.1 135c0-33.1-26.9-60-60-60s-60 26.9-60 60c0 17.8 7.7 33.7 20 44.7 10.5 12.7 16 20.7 16 35.4h48c0-14.7 5.5-22.7 16-35.4 12.3-11 20-26.9 20-44.7z"/><path class="st2" d="M172.1 141c0-14.9-8-28-20-35-12 7-20 20.1-20 35 0 14.9 8 28 20 35 12-7 20-20.1 20-35zm-20-35v70m0 39v-39"/><defs><path id="SVGID_3_" d="M172.1 141c0-14.9-8-28-20-35-12 7-20 20.1-20 35 0 14.9 8 28 20 35 12-7 20-20.1 20-35z"/></defs><clipPath id="SVGID_1_"><use xlink:href="#SVGID_3_" overflow="visible"/></clipPath><path class="st2" d="M152.1 159.8l20-20m-20 5l20-20m-20 5l20-20m-20 50l-20-20m20 5l-20-20m20 5l-20-20"/><circle class="st6" cx="186.6" cy="59.8" r="7.3"/><circle class="st7" cx="44.5" cy="41.1" r="7.5"/><circle class="st8" cx="71.3" cy="92.8" r="3.1"/><circle class="st7" cx="168.8" cy="7" r="3.1"/><circle class="st9" cx="120.9" cy="33.6" r="15.3"/><circle class="st10" cx="256.1" cy="48.7" r="11.1"/></svg>