<svg xmlns="http://www.w3.org/2000/svg" preserveAspectRatio="xMidYMid" width="47" height="63" viewBox="0 0 47 63"><defs><style>.cls-1 { stroke: #fff; stroke-linecap: round; stroke-linejoin: round; stroke-width: 2px; fill: none; fill-rule: evenodd; }</style></defs><path d="M25.999 53.995v3.998h2c1.105 0 2 .895 2 2.001 0 1.106-.895 2.001-2 2.001h-8c-1.105 0-2-.895-2-2.001 0-1.106.895-2.001 2-2.001h2v-3.998c-11.045 0-20-8.955-20-20.001v-3.999h4v3.999c0 8.837 7.164 16 16 16h4c8.837 0 16-7.163 16-16v-3.999h4v3.999c0 11.046-8.954 20.001-20 20.001zm8-42c0-5.522-4.477-10-10-10-5.522 0-9.999 4.478-9.999 10v20c0 5.522 4.477 10 9.999 10 5.523 0 10-4.478 10-10v-20z" class="cls-1"/></svg>