<svg xmlns="http://www.w3.org/2000/svg" preserveAspectRatio="xMidYMid" width="55" height="55" viewBox="0 0 55 55"><defs><style>.cls-1 { stroke: #fff; stroke-linecap: round; stroke-linejoin: round; stroke-width: 2px; fill: none; fill-rule: evenodd; }</style></defs><path d="M47.823 53.797h-39.836c-3.3 0-5.975-2.677-5.975-5.977v-39.833c0-3.302 2.675-5.977 5.975-5.977h39.836c3.3 0 5.975 2.675 5.975 5.977v39.833c0 3.3-2.675 5.977-5.975 5.977zm-3.984-11.952h-31.868c-1.1 0-1.992-.89-1.992-1.991 0-1.1.892-1.991 1.992-1.991h31.868c1.101 0 1.992.891 1.992 1.991 0 1.101-.891 1.991-1.992 1.991zm0-11.951h-31.868c-1.1 0-1.992-.889-1.992-1.991 0-1.097.892-1.992 1.992-1.992h31.868c1.101 0 1.992.895 1.992 1.992 0 1.102-.891 1.991-1.992 1.991zm0-11.949h-31.868c-1.1 0-1.992-.892-1.992-1.992s.892-1.993 1.992-1.993h31.868c1.101 0 1.992.893 1.992 1.993s-.891 1.992-1.992 1.992z" class="cls-1"/></svg>