<svg xmlns="http://www.w3.org/2000/svg" preserveAspectRatio="xMidYMid" width="22.25" height="23.094" viewBox="0 0 22.25 23.094"><defs><style>.cls-1 { fill: #919191; fill-rule: evenodd; }</style></defs><path d="M21.904 19.774c-.022.033-2.271 3.328-3.616 3.313l-.027-.001c-3.768-.164-8.234-4-11.318-7.188-3.083-3.187-6.793-7.807-6.955-11.72v-.032c-.014-1.37 3.171-3.743 3.203-3.765.362-.261.743-.371 1.091-.367.482.005.903.227 1.133.564.242.353 2.743 4.208 3.025 4.681.124.206.185.455.188.727.003.35-.091.736-.279 1.113-.183.366-.786 1.475-1.083 2.019.333.483 1.181 1.624 2.923 3.422 1.728 1.789 2.839 2.675 3.31 3.02.524-.306 1.597-.93 1.95-1.118.37-.2.741-.298 1.076-.295.267.003.51.071.711.205.429.282 4.129 2.859 4.481 3.123.333.251.516.694.521 1.174.003.379-.103.779-.334 1.125zm-.696-1.56c-.304-.228-3.993-2.799-4.438-3.093-.053-.035-.137-.055-.235-.056-.194-.003-.43.067-.668.194-.345.185-1.451.828-1.923 1.103l-.483.281-.461-.337c-.524-.383-1.667-1.299-3.429-3.122-1.758-1.816-2.648-3-3.021-3.545l-.332-.481.277-.505c.415-.761.913-1.683 1.066-1.989.12-.24.184-.484.182-.688-.001-.104-.019-.192-.052-.246-.257-.431-2.737-4.259-2.994-4.632-.054-.079-.203-.164-.405-.167-.193-.002-.396.07-.583.205-1.266.93-2.813 2.485-2.837 3.022.15 3.611 3.72 8.028 6.688 11.098 4.199 4.34 8.006 6.795 10.718 6.914.474-.011 1.857-1.41 2.895-2.928.118-.178.182-.392.18-.602-.002-.22-.075-.373-.145-.426z" class="cls-1"/></svg>