<svg xmlns="http://www.w3.org/2000/svg" preserveAspectRatio="xMidYMid" width="20" height="20" viewBox="0 0 20 20"><defs><style>.cls-1 { fill: #a2a8ae; fill-rule: evenodd; }</style></defs><path d="M10 19.998c-5.523 0-10-4.477-10-10 0-5.522 4.477-10 10-10s10 4.478 10 10c0 5.523-4.477 10-10 10zm-.945-5.524c-.249.25-.654.25-.903 0l-.015-.034-.02-.009-2.592-2.591c-.27-.271-.27-.71 0-.981.271-.271.711-.271.982 0l2.179 2.179 4.886-6.22c.249-.249.653-.249.903 0 .249.25.249.654 0 .904l-5.42 6.752z" class="cls-1"/></svg>