<svg xmlns="http://www.w3.org/2000/svg" preserveAspectRatio="xMidYMid" width="16" height="18" viewBox="0 0 16 18"><defs><style>.cls-1 { fill: #fff; fill-rule: evenodd; }</style></defs><path d="M15.5 18c-.276 0-.5-.224-.5-.5v-14c0-.276.224-.5.5-.5s.5.224.5.5v14c0 .276-.224.5-.5.5zm-5 0c-.276 0-.5-.224-.5-.5v-11c0-.276.224-.5.5-.5s.5.224.5.5v11c0 .276-.224.5-.5.5zm-5 0c-.276 0-.5-.224-.5-.5v-17c0-.276.224-.5.5-.5s.5.224.5.5v17c0 .276-.224.5-.5.5zm-5 0c-.276 0-.5-.224-.5-.5v-8c0-.276.224-.5.5-.5s.5.224.5.5v8c0 .276-.224.5-.5.5z" class="cls-1"/></svg>