<svg xmlns="http://www.w3.org/2000/svg" preserveAspectRatio="xMidYMid" width="18" height="14" viewBox="0 0 18 14"><defs><style>.cls-1 { fill: #fff; fill-rule: evenodd; }</style></defs><path d="M18 1.613l-1.687 1.611v.268c0 .295-.05.576-.122.849-.039 2.218-.779 5.157-3.816 7.477-5.974 4.565-12.375.537-12.375.537 5.062 0 5.062-1.611 5.062-1.611-1.124 0-3.375-2.149-3.375-2.149.563.537 1.688 0 1.688 0-2.813-1.611-2.813-3.222-2.813-3.222.563.536 1.688 0 1.688 0-2.813-2.149-1.125-4.835-1.125-4.835.562 2.686 7.875 3.76 7.875 3.76l.093-.044c-.057-.246-.093-.768-.093-1.03 0-1.928 1.637-3.223 3.656-3.223 1.112 0 2.095.483 2.766 1.231l.328-.157 1.687-1.074-1.124 2.149 1.687-.537z" class="cls-1"/></svg>