<svg xmlns="http://www.w3.org/2000/svg" preserveAspectRatio="xMidYMid" width="28" height="23" viewBox="0 0 28 23"><defs><style>.cls-1 { fill: #24a5e2; fill-rule: evenodd; }</style></defs><path d="M28 2.725c-1.032.462-2.136.773-3.299.917 1.187-.719 2.1-1.857 2.528-3.211-1.11.665-2.338 1.15-3.649 1.408-1.051-1.132-2.546-1.839-4.195-1.839-3.175 0-5.744 2.599-5.744 5.804 0 .455.047.898.148 1.324-4.776-.24-9.013-2.552-11.843-6.068-.492.857-.777 1.857-.777 2.917 0 2.013 1.02 3.791 2.563 4.834-.949-.024-1.839-.288-2.611-.725v.072c0 2.815 1.982 5.157 4.611 5.69-.481.132-.991.204-1.513.204-.368 0-.73-.036-1.08-.108.73 2.306 2.854 3.983 5.37 4.031-1.964 1.557-4.445 2.485-7.138 2.485-.463 0-.92-.029-1.371-.083 2.534 1.665 5.554 2.623 8.793 2.623 10.58 0 16.359-8.847 16.359-16.519 0-.252-.006-.503-.018-.749 1.122-.821 2.095-1.839 2.866-3.007z" class="cls-1"/></svg>