<svg xmlns="http://www.w3.org/2000/svg" preserveAspectRatio="xMidYMid" width="32" height="32" viewBox="0 0 32 32"><defs><style>.cls-1 { fill: #fff; fill-rule: evenodd; }</style></defs><path d="M29 31.997h-26c-1.657 0-3-1.344-3-3v-26c0-1.657 1.343-3 3-3h26c1.656 0 3 1.343 3 3v26c0 1.656-1.344 3-3 3zm-8.001-6.002c-2.418 0-4.435-1.717-4.899-3.998h-9.191c-.502 0-.909-.449-.909-1.001 0-.551.407-.998.909-.998h9.191c.463-2.283 2.48-4.001 4.899-4.001 2.762 0 5 2.238 5 4.998v.003c-.002 2.761-2.239 4.997-5 4.997zm0-7.999c-1.656 0-2.999 1.344-2.999 2.999 0 1.658 1.343 3 2.999 3 1.657 0 3.001-1.342 3.001-3 0-1.655-1.344-2.999-3.001-2.999zm4.091-5.999h-9.192c-.463 2.281-2.48 3.999-4.899 3.999-2.76 0-4.998-2.237-4.999-4.998v-.002c0-2.762 2.238-4.999 4.999-4.999 2.42 0 4.437 1.717 4.9 3.999h9.191c.503 0 .909.448.909 1s-.406 1.001-.909 1.001zm-14.091-4.001c-1.656 0-2.999 1.343-2.999 3s1.343 3 2.999 3c1.657 0 3.001-1.343 3.001-3s-1.344-3-3.001-3z" class="cls-1"/></svg>