<svg xmlns="http://www.w3.org/2000/svg" preserveAspectRatio="xMidYMid" width="24" height="24" viewBox="0 0 24 24"><defs><style>.cls-1 { fill: #fff; fill-rule: evenodd; }</style></defs><path d="M23.5 24h-23c-.276 0-.5-.224-.5-.5v-23c0-.276.224-.5.5-.5h23c.276 0 .5.224.5.5v23c0 .276-.224.5-.5.5zm-.5-23h-22v22h22v-22zm-20 18h1.813c.207-.581.756-1 1.408-1 .652 0 1.202.419 1.408 1h13.371c.276 0 .5.224.5.5s-.224.5-.5.5h-13.371c-.206.581-.756 1-1.408 1-.652 0-1.201-.419-1.408-1h-1.813c-.276 0-.5-.224-.5-.5s.224-.5.5-.5zm13.75-9.567l-8 4.619c-.077.045-.164.067-.25.067s-.173-.022-.25-.067c-.155-.089-.25-.254-.25-.433v-9.238c0-.179.095-.344.25-.433.154-.09.346-.09.5 0l8 4.619c.155.089.25.254.25.433s-.095.344-.25.433zm-7.75-4.186v7.506l6.5-3.753-6.5-3.753z" class="cls-1"/></svg>