<svg xmlns="http://www.w3.org/2000/svg" width="70" height="60" viewBox="0 0 70 60"><defs><style>.cls-1 { fill-rule: evenodd; fill: url(#linear-gradient); }</style><linearGradient id="linear-gradient" x1="674" y1="1668" x2="734" y2="1728" gradientUnits="userSpaceOnUse"><stop offset="-.25" stop-color="#25a5e3"/><stop offset="1.25" stop-color="#0074bf"/></linearGradient></defs><path id="web-design-icon.svg" class="cls-1" d="M736 1728h-20a3 3 0 0 1-3-3v-9.01h-10v8h6a2 2 0 0 1 0 4h-16a2 2 0 1 1 0-4h6v-8h-26a4 4 0 0 1-4-4v-40a4 4 0 0 1 4-4h57a4 4 0 0 1 4 4v17.01h2a3 3 0 0 1 3 3v33a3 3 0 0 1-3 3zm-6-54a2 2 0 0 0-2-2.01h-53a2.005 2.005 0 0 0-2 2.01v35.99a2 2 0 0 0 2 2h38v-4.99h-14a1 1 0 0 1-1-1v-20a1 1 0 0 1 1-1h26a1 1 0 0 1 1 1v3h4v-15zm6 19a1 1 0 0 0-1-1h-18a1 1 0 0 0-1 1v31a1 1 0 0 0 1 1h18a1 1 0 0 0 1-1v-31zm-3 24h-14a1 1 0 0 1-1-1v-21a1 1 0 0 1 1-1h14a1 1 0 0 1 1 1v21a1 1 0 0 1-1 1zm-7 2a2 2 0 1 1-2 2 2 2 0 0 1 2-2zm-1-38h-47a1 1 0 0 1-1-1v-2a1 1 0 0 1 1-1h47a1 1 0 0 1 1 1v2a1 1 0 0 1-1 1zm-47 4h15a1 1 0 0 1 1 1v20a1 1 0 0 1-1 1h-15a1 1 0 0 1-1-1v-20a1 1 0 0 1 1-1z" transform="translate(-669 -1668)"/></svg>