<svg xmlns="http://www.w3.org/2000/svg" preserveAspectRatio="xMidYMid" width="14" height="16" viewBox="0 0 14 16"><defs><style>.cls-1 { fill: #fff; fill-rule: evenodd; }</style></defs><path d="M9.504 13.517l.296 1.482h1.7c.276 0 .5.224.5.499 0 .277-.224.501-.5.501h-9c-.276 0-.5-.224-.5-.501 0-.275.224-.499.5-.499h1.7l.296-1.482c-2.625-1.01-4.496-3.538-4.496-6.518 0-3.866 3.134-7.001 7-7.001s7 3.135 7 7.001c0 2.98-1.871 5.508-4.496 6.518zm-.504 1.482l-.401-1.201c-.515.121-1.046.201-1.599.201-.553 0-1.084-.08-1.6-.201l-.4 1.201h4zm-2-5.001c-1.657 0-3-1.343-3-2.999 0-1.657 1.343-3 3-3s3 1.343 3 3c0 1.656-1.343 2.999-3 2.999zm0-5c-1.105 0-2 .896-2 2.001 0 1.104.895 1.999 2 1.999 1.104 0 2-.895 2-1.999 0-1.105-.896-2.001-2-2.001z" class="cls-1"/></svg>