<svg xmlns="http://www.w3.org/2000/svg" width="26" height="30" viewBox="0 0 26 30"><defs><style>.cls-1 { fill: #fff; } .cls-2 { fill-rule: evenodd; fill: url(#linear-gradient); }</style><linearGradient id="linear-gradient" x1="533" y1="3952" x2="559" y2="3926" gradientUnits="userSpaceOnUse"><stop offset="-.25" stop-color="#fc5441"/><stop offset="1.25" stop-color="#e93a80"/></linearGradient></defs><circle class="cls-1" cx="13" cy="17" r="12"/><path id="_24-time_-_stopwatch_timer" class="cls-2" d="M559 3941a13 13 0 1 1-14-12.9v-2.1h-3a1 1 0 0 1 0-2h4v-.01.01h4a1 1 0 0 1 0 2h-3v2.1a12.958 12.958 0 0 1 12 12.9zm-13-11a11 11 0 1 0 11 11 11 11 0 0 0-11-11zm5 18.48v-2.48h-.111a6.993 6.993 0 0 0-4.889-12v-2a9 9 0 0 1 5 16.48zm-4-7.48v8a1 1 0 0 1-2 0v-8a1 1 0 0 1 2 0zm-1 9z" transform="translate(-533 -3924)"/></svg>