<svg xmlns="http://www.w3.org/2000/svg" preserveAspectRatio="xMidYMid" width="30" height="23" viewBox="0 0 30 23"><defs><style>.cls-1 { fill: #24a5e2; fill-rule: evenodd; }</style></defs><path d="M29.806 5.079c0-2.695-1.94-4.863-4.337-4.863-3.246-.156-6.557-.216-9.939-.216h-1.055c-3.375 0-6.692.06-9.939.216-2.391 0-4.331 2.18-4.331 4.875-.146 2.132-.211 4.264-.205 6.396-.006 2.133.059 4.265.2 6.403 0 2.696 1.939 4.882 4.33 4.882 3.411.161 6.91.233 10.467.227 3.563.012 7.05-.06 10.466-.227 2.397 0 4.337-2.186 4.337-4.882.141-2.138.205-4.27.199-6.408.012-2.133-.052-4.265-.193-6.403zm-17.675 12.284v-11.769l8.498 5.882-8.498 5.887z" class="cls-1"/></svg>